<svg width="68" height="121" viewBox="0 0 68 121" fill="none" xmlns="http://www.w3.org/2000/svg">
<g id="back">
<g id="crus_mb">
<path id="Vector 121" d="M16.5 109.5V102.624C16.5 102.542 16.5068 102.459 16.5204 102.377L16.8927 100.144C16.9376 99.8743 17.2683 99.7683 17.4615 99.9615V99.9615C17.487 99.987 17.5165 100.008 17.5487 100.024L17.6838 100.092C18.1712 100.336 18.7599 100.24 19.1453 99.8547L19.3344 99.6656C19.4441 99.5559 19.5354 99.4293 19.6047 99.2906L20.2298 98.0405C20.3627 97.7746 20.7171 97.7171 20.9273 97.9273V97.9273C20.9751 97.9751 21.0111 98.0334 21.0325 98.0975L21.3675 99.1025C21.4546 99.3639 21.6014 99.6014 21.7963 99.7963V99.7963C21.9312 99.9312 22.0435 100.087 22.1288 100.258L22.2073 100.415C22.3973 100.795 22.7054 101.103 23.0854 101.293L23.3979 101.449C23.465 101.483 23.5391 101.5 23.6142 101.5V101.5C23.9968 101.5 24.2279 101.923 24.021 102.245L20.6218 107.533C20.2159 108.164 20 108.899 20 109.65V111V113.5V112.384C20 112.172 20.1718 112 20.3838 112V112C20.4596 112 20.5336 112.022 20.5967 112.064L21.042 112.361C21.6405 112.76 22 113.432 22 114.151V115.441C22 115.784 21.8064 116.097 21.5 116.25V116.25C21.1936 116.403 21 116.716 21 117.059V117.849C21 118.273 20.8743 118.689 20.6387 119.042V119.042C20.2397 119.641 19.5679 120 18.8486 120H18.6514C17.9321 120 17.2603 119.641 16.8613 119.042V119.042C16.6257 118.689 16.5 118.273 16.5 117.849V109.5Z" stroke="black" stroke-width="0.5"/>
<path id="Vector 137" d="M51.5 109.5V102.624C51.5 102.542 51.4932 102.459 51.4796 102.377L51.1073 100.144C51.0624 99.8743 50.7317 99.7683 50.5385 99.9615V99.9615C50.513 99.987 50.4835 100.008 50.4513 100.024L50.3162 100.092C49.8288 100.336 49.2401 100.24 48.8547 99.8547L48.6656 99.6656C48.5559 99.5559 48.4646 99.4293 48.3953 99.2906L47.7702 98.0405C47.6373 97.7746 47.2829 97.7171 47.0727 97.9273V97.9273C47.0249 97.9751 46.9889 98.0334 46.9675 98.0975L46.6325 99.1025C46.5454 99.3639 46.3986 99.6014 46.2037 99.7963V99.7963C46.0688 99.9312 45.9565 100.087 45.8712 100.258L45.7927 100.415C45.6027 100.795 45.2946 101.103 44.9146 101.293L44.6021 101.449C44.535 101.483 44.4609 101.5 44.3858 101.5V101.5C44.0032 101.5 43.7721 101.923 43.979 102.245L47.3782 107.533C47.7841 108.164 48 108.899 48 109.65V111V113.5V112.384C48 112.172 47.8282 112 47.6162 112V112C47.5404 112 47.4664 112.022 47.4033 112.064L46.958 112.361C46.3595 112.76 46 113.432 46 114.151V115.441C46 115.784 46.1936 116.097 46.5 116.25V116.25C46.8064 116.403 47 116.716 47 117.059V117.849C47 118.273 47.1257 118.689 47.3613 119.042V119.042C47.7603 119.641 48.4321 120 49.1514 120H49.3486C50.0679 120 50.7397 119.641 51.1387 119.042V119.042C51.3743 118.689 51.5 118.273 51.5 117.849V109.5Z" stroke="black" stroke-width="0.5"/>
</g>
<g id="kirill_ne_podpisal_2">
<path id="Vector 118" d="M22.9149 85.7446L22.1622 83.4867C22.0611 83.1832 22.1207 82.8492 22.3205 82.5994L23.6877 80.8904C23.7912 80.761 24 80.8342 24 81V82.5V84.691C24 84.8942 23.9527 85.0946 23.8618 85.2764L23.6032 85.7936C23.54 85.9201 23.4106 86 23.2692 86C23.1084 86 22.9657 85.8971 22.9149 85.7446Z" stroke="black" stroke-width="0.5"/>
<path id="Vector 134" d="M45.0851 85.7446L45.8378 83.4867C45.9389 83.1832 45.8793 82.8492 45.6795 82.5994L44.3123 80.8904C44.2088 80.761 44 80.8342 44 81V82.5V84.691C44 84.8942 44.0473 85.0946 44.1382 85.2764L44.3968 85.7936C44.46 85.9201 44.5894 86 44.7308 86C44.8916 86 45.0343 85.8971 45.0851 85.7446Z" stroke="black" stroke-width="0.5"/>
</g>
<g id="gastrocnemius_mb">
<path id="Vector 120" d="M22.5382 100.853L21.6427 99.5997C20.9136 98.5791 20.6396 97.3022 20.8855 96.0723L21.3251 93.8743C21.4415 93.2927 21.6108 92.7229 21.8311 92.1721L23.1885 88.7788C23.3943 88.2643 23.5 87.7153 23.5 87.1612V86.1351C23.5 86.0466 23.5232 85.9596 23.5672 85.8828C23.7755 85.52 24.309 85.5516 24.4729 85.9365L24.4812 85.9558C24.4937 85.9852 24.5089 86.0134 24.5267 86.04L25.5 87.5L25.859 88.218C25.9369 88.3738 26.1262 88.4369 26.282 88.359C26.5382 88.2309 26.8187 88.4834 26.7181 88.7517L25.5997 91.7341C25.5338 91.9099 25.5 92.0962 25.5 92.284V99.2192C25.5 99.4057 25.4771 99.5915 25.4319 99.7724L25.2924 100.331C25.1205 101.018 24.503 101.5 23.7945 101.5C23.2959 101.5 22.828 101.259 22.5382 100.853Z" stroke="black" stroke-width="0.5"/>
<path id="Vector 136" d="M45.4618 100.853L46.3573 99.5997C47.0864 98.5791 47.3604 97.3022 47.1145 96.0723L46.6749 93.8743C46.5585 93.2927 46.3892 92.7229 46.1689 92.1721L44.8115 88.7788C44.6057 88.2643 44.5 87.7153 44.5 87.1612V86.1351C44.5 86.0466 44.4768 85.9596 44.4328 85.8828C44.2245 85.52 43.691 85.5516 43.5271 85.9365L43.5188 85.9558C43.5063 85.9852 43.4911 86.0134 43.4733 86.04L42.5 87.5L42.141 88.218C42.0631 88.3738 41.8738 88.4369 41.718 88.359C41.4618 88.2309 41.1813 88.4834 41.2819 88.7517L42.4003 91.7341C42.4662 91.9099 42.5 92.0962 42.5 92.284V99.2192C42.5 99.4057 42.5229 99.5915 42.5681 99.7724L42.7076 100.331C42.8795 101.018 43.497 101.5 44.2055 101.5C44.7041 101.5 45.172 101.259 45.4618 100.853Z" stroke="black" stroke-width="0.5"/>
<path id="Vector 119" d="M20 87.8634V84.2735C20 83.9181 20.374 83.687 20.6918 83.8459C20.8759 83.9379 21.0981 83.9019 21.2436 83.7564L21.3082 83.6918C21.626 83.374 22.1672 83.5017 22.3094 83.9282L22.9338 85.8013C22.9733 85.92 23.0844 86 23.2094 86C23.3699 86 23.5 86.1301 23.5 86.2906V87.677C23.5 87.8904 23.4593 88.1018 23.3801 88.2999L21.841 92.1475C21.6141 92.7147 21.4397 93.3014 21.3199 93.9003L20.7403 96.7987C20.5821 97.5895 20.2488 98.3349 19.765 98.98L19.1708 99.7722C19.0585 99.922 18.9128 100.044 18.7454 100.127C17.9435 100.528 17 99.9452 17 99.0486V95.3276C17 94.7833 17.1267 94.2466 17.3701 93.7598L19.7153 89.0694C19.9025 88.6949 20 88.282 20 87.8634Z" stroke="black" stroke-width="0.5"/>
<path id="Vector 135" d="M48 87.8634V84.2735C48 83.9181 47.626 83.687 47.3082 83.8459C47.1241 83.9379 46.9019 83.9019 46.7564 83.7564L46.6918 83.6918C46.374 83.374 45.8328 83.5017 45.6906 83.9282L45.0662 85.8013C45.0267 85.92 44.9156 86 44.7906 86C44.6301 86 44.5 86.1301 44.5 86.2906V87.677C44.5 87.8904 44.5407 88.1018 44.6199 88.2999L46.159 92.1475C46.3859 92.7147 46.5603 93.3014 46.6801 93.9003L47.2597 96.7987C47.4179 97.5895 47.7512 98.3349 48.235 98.98L48.8292 99.7722C48.9415 99.922 49.0872 100.044 49.2546 100.127C50.0565 100.528 51 99.9452 51 99.0486V95.3276C51 94.7833 50.8733 94.2466 50.6299 93.7598L48.2847 89.0694C48.0975 88.6949 48 88.282 48 87.8634Z" stroke="black" stroke-width="0.5"/>
</g>
<g id="biceps_femoris_mb">
<path id="Vector 117" d="M24 83.9432V82.5729C24 81.2097 24.3174 79.8652 24.9271 78.6459L25 78.5C25.3288 77.8424 25.5 77.1172 25.5 76.382V75.6171C25.5 74.876 25.6033 74.1385 25.8069 73.4259L27.4864 67.5477C27.4954 67.516 27.5074 67.4851 27.5222 67.4556L27.5528 67.3944C27.737 67.0259 28.263 67.0259 28.4472 67.3944C28.4819 67.4639 28.5 67.5404 28.5 67.618V69.5V73.4384C28.5 73.8114 28.5457 74.183 28.6362 74.5448L29.4541 77.8163C29.4811 77.9243 29.5781 78 29.6894 78C29.8472 78 29.9629 78.1483 29.9247 78.3014L28.0513 85.7946C28.0173 85.9309 27.9647 86.0618 27.895 86.1838L26.9461 87.8444C26.6035 88.4439 25.705 88.32 25.5375 87.6501C25.5128 87.551 25.4684 87.4579 25.4072 87.3762L24.9341 86.7455C24.3278 85.937 24 84.9537 24 83.9432Z" stroke="black" stroke-width="0.5"/>
<path id="Vector 133" d="M44 83.9432V82.5729C44 81.2097 43.6826 79.8652 43.0729 78.6459L43 78.5C42.6712 77.8424 42.5 77.1172 42.5 76.382V75.6171C42.5 74.876 42.3967 74.1385 42.1931 73.4259L40.5136 67.5477C40.5046 67.516 40.4926 67.4851 40.4778 67.4556L40.4472 67.3944C40.263 67.0259 39.737 67.0259 39.5528 67.3944C39.5181 67.4639 39.5 67.5404 39.5 67.618V69.5V73.4384C39.5 73.8114 39.4543 74.183 39.3638 74.5448L38.5459 77.8163C38.5189 77.9243 38.4219 78 38.3106 78C38.1528 78 38.0371 78.1483 38.0753 78.3014L39.9487 85.7946C39.9827 85.9309 40.0353 86.0618 40.105 86.1838L41.0539 87.8444C41.3965 88.4439 42.295 88.32 42.4625 87.6501C42.4872 87.551 42.5316 87.4579 42.5928 87.3762L43.0659 86.7455C43.6722 85.937 44 84.9537 44 83.9432Z" stroke="black" stroke-width="0.5"/>
</g>
<g id="adductor_magnus_mb">
<path id="Vector 116" d="M28.5 72V68.1664C28.5 67.4196 28.2033 66.7033 27.6752 66.1752C27.6106 66.1106 27.6564 66 27.7478 66H29.5H31.7929C31.9255 66 32.0527 65.9473 32.1464 65.8536C32.4614 65.5386 33 65.7617 33 66.2071V69.2166C33 69.4043 32.9697 69.5908 32.9104 69.7689L32.5 71L31.5 74L30.6213 77.5149C30.55 77.8 30.2939 78 30 78C29.7061 78 29.45 77.8 29.3787 77.5149L28.6362 74.5448C28.5457 74.183 28.5 73.8114 28.5 73.4384V72Z" stroke="black" stroke-width="0.5"/>
<path id="Vector 132" d="M39.5 72V68.1664C39.5 67.4196 39.7967 66.7033 40.3248 66.1752C40.3894 66.1106 40.3436 66 40.2522 66H38.5H36.2071C36.0745 66 35.9473 65.9473 35.8536 65.8536C35.5386 65.5386 35 65.7617 35 66.2071V69.2166C35 69.4043 35.0303 69.5908 35.0896 69.7689L35.5 71L36.5 74L37.3787 77.5149C37.45 77.8 37.7061 78 38 78C38.2939 78 38.55 77.8 38.6213 77.5149L39.3638 74.5448C39.4543 74.183 39.5 73.8114 39.5 73.4384V72Z" stroke="black" stroke-width="0.5"/>
</g>
<g id="vastus_lateralis_mb">
<path id="Vector 115" d="M20.6942 62.529L20.8199 61.9003C20.9397 61.3014 21.1141 60.7147 21.341 60.1475L21.8546 58.8636C21.9042 58.7395 22.0816 58.7447 22.1238 58.8715L22.4719 59.9158C22.4905 59.9716 22.5 60.03 22.5 60.0887V61C22.5 61.6623 22.6068 62.3203 22.8162 62.9487L22.9254 63.2761C22.9751 63.4252 23.0353 63.5705 23.1056 63.7111C23.364 64.2281 23.753 64.6686 24.2339 64.9892L24.4079 65.1052C24.7997 65.3665 25.2335 65.5584 25.6904 65.6726L26.9209 65.9802C26.9734 65.9934 27.0274 66 27.0815 66C27.5334 66 27.8524 66.4427 27.7095 66.8714L27 69L25.8001 73.3995C25.6009 74.1299 25.5 74.8836 25.5 75.6407V75.7648C25.5 77.2274 25.1025 78.6625 24.35 79.9167C24.1171 80.3049 23.8519 80.6728 23.5573 81.0165L21.1676 83.8044C21.0612 83.9286 20.9059 84 20.7424 84C20.3704 84 20.1017 83.6439 20.204 83.2861L20.9045 80.8344C20.9678 80.6126 21 80.3829 21 80.1522V76.5726C21 75.8596 20.9237 75.1486 20.7725 74.4518L20.7275 74.2443C20.5763 73.5474 20.5 72.8365 20.5 72.1234V64.4902C20.5 63.8317 20.565 63.1748 20.6942 62.529Z" stroke="black" stroke-width="0.5"/>
<path id="Vector 131" d="M47.3058 62.529L47.1801 61.9003C47.0603 61.3014 46.8859 60.7147 46.659 60.1475L46.1454 58.8636C46.0958 58.7395 45.9184 58.7447 45.8762 58.8715L45.5281 59.9158C45.5095 59.9716 45.5 60.03 45.5 60.0887V61C45.5 61.6623 45.3932 62.3203 45.1838 62.9487L45.0746 63.2761C45.0249 63.4252 44.9647 63.5705 44.8944 63.7111C44.636 64.2281 44.247 64.6686 43.7661 64.9892L43.5921 65.1052C43.2003 65.3665 42.7665 65.5584 42.3096 65.6726L41.0791 65.9802C41.0266 65.9934 40.9726 66 40.9185 66C40.4666 66 40.1476 66.4427 40.2905 66.8714L41 69L42.1999 73.3995C42.3991 74.1299 42.5 74.8836 42.5 75.6407V75.7648C42.5 77.2274 42.8975 78.6625 43.65 79.9167C43.8829 80.3049 44.1481 80.6728 44.4427 81.0165L46.8324 83.8044C46.9388 83.9286 47.0941 84 47.2576 84C47.6296 84 47.8983 83.6439 47.796 83.2861L47.0955 80.8344C47.0322 80.6126 47 80.3829 47 80.1522V76.5726C47 75.8596 47.0763 75.1486 47.2275 74.4518L47.2725 74.2443C47.4237 73.5474 47.5 72.8365 47.5 72.1234V64.4902C47.5 63.8317 47.435 63.1748 47.3058 62.529Z" stroke="black" stroke-width="0.5"/>
</g>
<g id="gluteus_maximus_mb">
<path id="Vector 114" d="M22.4476 59.8429L22.2125 59.1376C22.108 58.8239 22.3414 58.5 22.6721 58.5C22.8701 58.5 23.0482 58.3794 23.1218 58.1955L24 56L24.3906 54.4377C24.4633 54.1468 24.5677 53.8647 24.7018 53.5965C24.8993 53.2014 25.1592 52.8408 25.4716 52.5284L27.4919 50.5081C27.8172 50.1828 28.2585 50 28.7185 50C28.9049 50 29.0902 50.0301 29.267 50.089L29.6111 50.2037C30.1957 50.3986 30.7268 50.7268 31.1626 51.1626L33.3964 53.3964C33.4628 53.4628 33.5527 53.5 33.6464 53.5C33.8417 53.5 34 53.6583 34 53.8536V61.0986C34 61.6864 33.826 62.261 33.5 62.75L33.3514 62.973C33.1223 63.3166 33 63.7204 33 64.1334V64.2929C33 64.7456 32.8201 65.1799 32.5 65.5C32.1799 65.8201 31.7456 66 31.2929 66H27.5449C27.1825 66 26.821 65.9642 26.4657 65.8931L26.0993 65.8199C25.0663 65.6133 24.1392 65.049 23.4811 64.2264C22.846 63.4325 22.5 62.4461 22.5 61.4294V60.1656C22.5 60.0559 22.4823 59.947 22.4476 59.8429Z" stroke="black" stroke-width="0.5"/>
<path id="Vector 130" d="M45.5524 59.8429L45.7875 59.1376C45.892 58.8239 45.6586 58.5 45.3279 58.5C45.1299 58.5 44.9518 58.3794 44.8782 58.1955L44 56L43.6094 54.4377C43.5367 54.1468 43.4323 53.8647 43.2982 53.5965C43.1007 53.2014 42.8408 52.8408 42.5284 52.5284L40.5081 50.5081C40.1828 50.1828 39.7415 50 39.2815 50C39.0951 50 38.9098 50.0301 38.733 50.089L38.3889 50.2037C37.8043 50.3986 37.2732 50.7268 36.8374 51.1626L34.6036 53.3964C34.5372 53.4628 34.4473 53.5 34.3536 53.5C34.1583 53.5 34 53.6583 34 53.8536V61.0986C34 61.6864 34.174 62.261 34.5 62.75L34.6486 62.973C34.8777 63.3166 35 63.7204 35 64.1334V64.2929C35 64.7456 35.1799 65.1799 35.5 65.5C35.8201 65.8201 36.2544 66 36.7071 66H40.4551C40.8175 66 41.179 65.9642 41.5343 65.8931L41.9007 65.8199C42.9337 65.6133 43.8608 65.049 44.5189 64.2264C45.154 63.4325 45.5 62.4461 45.5 61.4294V60.1656C45.5 60.0559 45.5177 59.947 45.5524 59.8429Z" stroke="black" stroke-width="0.5"/>
</g>
<g id="gluteus_medius_mb">
<path id="Vector 113" d="M23.9327 51.6636L23.6892 50.4459C23.6122 50.0609 24.0116 49.7558 24.3628 49.9314C24.452 49.976 24.553 49.9912 24.6513 49.9748L27.263 49.5395C27.4117 49.5147 27.5633 49.5633 27.6699 49.6699C27.8522 49.8522 27.8522 50.1478 27.6699 50.3301L25.3134 52.6866C24.783 53.217 24.4215 53.8925 24.2744 54.628L24.1163 55.4183C24.0389 55.8053 23.9263 56.1844 23.7797 56.5508L23.0794 58.3015C23.0277 58.4308 22.938 58.5414 22.8221 58.6186C22.3207 58.9529 21.6622 58.5271 21.7612 57.9327L21.9739 56.6567C21.9912 56.5527 22.0217 56.4512 22.0645 56.3548L23.8607 52.3135C23.9513 52.1095 23.9765 51.8825 23.9327 51.6636Z" stroke="black" stroke-width="0.5"/>
<path id="Vector 129" d="M44.0673 51.6636L44.3108 50.4459C44.3878 50.0609 43.9884 49.7558 43.6372 49.9314C43.548 49.976 43.447 49.9912 43.3487 49.9748L40.737 49.5395C40.5883 49.5147 40.4367 49.5633 40.3301 49.6699C40.1478 49.8522 40.1478 50.1478 40.3301 50.3301L42.6866 52.6866C43.217 53.217 43.5785 53.8925 43.7256 54.628L43.8837 55.4183C43.9611 55.8053 44.0737 56.1844 44.2203 56.5508L44.9206 58.3015C44.9723 58.4308 45.062 58.5414 45.1779 58.6186C45.6793 58.9529 46.3378 58.5271 46.2388 57.9327L46.0261 56.6567C46.0088 56.5527 45.9783 56.4512 45.9355 56.3548L44.1393 52.3135C44.0487 52.1095 44.0235 51.8825 44.0673 51.6636Z" stroke="black" stroke-width="0.5"/>
</g>
<g id="obliquus_externus_abdominis_mb">
<path id="Vector 112" d="M27.1193 49.5761L25.0883 49.9823C25.0296 49.9941 24.9698 50 24.9099 50C24.4074 50 24 49.5926 24 49.0901V42.5C24 42.3398 24.2039 42.2719 24.3 42.4L26.7 45.6C26.8947 45.8596 27 46.1754 27 46.5V47.0729C27 47.3347 27.1479 47.5739 27.382 47.691C27.7233 47.8616 27.8616 48.2767 27.691 48.618L27.55 48.9C27.5171 48.9658 27.5 49.0383 27.5 49.1118C27.5 49.3375 27.3407 49.5319 27.1193 49.5761Z" stroke="black" stroke-width="0.5"/>
<path id="Vector 128" d="M40.8807 49.5761L42.9117 49.9823C42.9704 49.9941 43.0302 50 43.0901 50C43.5926 50 44 49.5926 44 49.0901V42.5C44 42.3398 43.7961 42.2719 43.7 42.4L41.3 45.6C41.1053 45.8596 41 46.1754 41 46.5V47.0729C41 47.3347 40.8521 47.5739 40.618 47.691C40.2767 47.8616 40.1384 48.2767 40.309 48.618L40.45 48.9C40.4829 48.9658 40.5 49.0383 40.5 49.1118C40.5 49.3375 40.6593 49.5319 40.8807 49.5761Z" stroke="black" stroke-width="0.5"/>
</g>
<g id="hand">
<path id="Vector 110" d="M1.63071 61.0052L5.43789 57.5153C5.71958 57.257 6.17012 57.3402 6.34102 57.682C6.43845 57.8769 6.63762 58 6.85549 58H7.83443C7.94409 58 8.05304 57.9823 8.15707 57.9476C8.81774 57.7274 9.5 58.2192 9.5 58.9156V60.1859C9.5 60.3939 9.53354 60.6006 9.59934 60.798L10.8409 64.5228C10.9322 64.7966 10.8083 65.0959 10.5501 65.2249C10.2517 65.3742 9.88916 65.2414 9.75772 64.9347L8.59794 62.2285C8.53852 62.0899 8.4022 62 8.25137 62C8.09915 62 7.96186 62.0915 7.90332 62.232L6.26923 66.1538C5.80342 67.2718 4.7111 68 3.5 68C2.85089 68 2.21929 67.7895 1.7 67.4L1.62033 67.3402C0.904366 66.8033 0.437306 65.9984 0.3263 65.1104L0.274386 64.6951C0.102256 63.318 0.607721 61.9429 1.63071 61.0052Z" stroke="black" stroke-width="0.5"/>
<path id="Vector 126" d="M66.3693 61.0052L62.5621 57.5153C62.2804 57.257 61.8299 57.3402 61.659 57.682C61.5615 57.8769 61.3624 58 61.1445 58H60.1656C60.0559 58 59.947 57.9823 59.8429 57.9476C59.1823 57.7274 58.5 58.2192 58.5 58.9156V60.1859C58.5 60.3939 58.4665 60.6006 58.4007 60.798L57.1591 64.5228C57.0678 64.7966 57.1917 65.0959 57.4499 65.2249C57.7483 65.3742 58.1108 65.2414 58.2423 64.9347L59.4021 62.2285C59.4615 62.0899 59.5978 62 59.7486 62C59.9008 62 60.0381 62.0915 60.0967 62.232L61.7308 66.1538C62.1966 67.2718 63.2889 68 64.5 68C65.1491 68 65.7807 67.7895 66.3 67.4L66.3797 67.3402C67.0956 66.8033 67.5627 65.9984 67.6737 65.1104L67.7256 64.6951C67.8977 63.318 67.3923 61.9429 66.3693 61.0052Z" stroke="black" stroke-width="0.5"/>
</g>
<g id="latissimus_dorsi_mb">
<path id="Vector 111" d="M22 30.5L22.5 35.5L22.7325 38.057C22.907 39.9766 23.642 41.8025 24.846 43.3076L26.7711 45.7139C26.9193 45.8991 27 46.1292 27 46.3664V47C27 47.8008 28.0195 48.1407 28.5 47.5V47.5L29.1035 46.5948C29.3666 46.2 29.576 45.7719 29.7261 45.3218V45.3218C29.9075 44.7775 30 44.2075 30 43.6337V43.3663C30 42.7925 30.0925 42.2225 30.2739 41.6782V41.6782C30.424 41.2281 30.6334 40.8 30.8965 40.4052L31.2638 39.8542C31.4201 39.6198 31.6152 39.4136 31.8406 39.2446L32.6056 38.6708C33.1235 38.2824 33.2895 37.5791 33 37V37L29.4045 29.809C29.1811 29.3622 28.6378 29.1811 28.191 29.4045V29.4045C28.0654 29.4673 27.9269 29.5 27.7865 29.5H27.7809C27.5978 29.5 27.4187 29.5542 27.2662 29.6558L26 30.5L25.5878 30.7061C25.2012 30.8994 24.775 31 24.3428 31V31C23.7933 31 23.256 30.8373 22.7987 30.5325L22 30" stroke="black" stroke-width="0.5"/>
<path id="Vector 127" d="M46 30.5L45.5 35.5L45.2675 38.057C45.093 39.9766 44.358 41.8025 43.154 43.3076L41.2289 45.7139C41.0807 45.8991 41 46.1292 41 46.3664V47C41 47.8008 39.9805 48.1407 39.5 47.5V47.5L38.8965 46.5948C38.6334 46.2 38.424 45.7719 38.2739 45.3218V45.3218C38.0925 44.7775 38 44.2075 38 43.6337V43.3663C38 42.7925 37.9075 42.2225 37.7261 41.6782V41.6782C37.576 41.2281 37.3666 40.8 37.1035 40.4052L36.7362 39.8542C36.5799 39.6198 36.3848 39.4136 36.1594 39.2446L35.3944 38.6708C34.8765 38.2824 34.7105 37.5791 35 37V37L38.5955 29.809C38.8189 29.3622 39.3622 29.1811 39.809 29.4045V29.4045C39.9346 29.4673 40.0731 29.5 40.2135 29.5H40.2191C40.4022 29.5 40.5813 29.5542 40.7338 29.6558L42 30.5L42.4122 30.7061C42.7988 30.8994 43.225 31 43.6572 31V31C44.2067 31 44.744 30.8373 45.2013 30.5325L46 30" stroke="black" stroke-width="0.5"/>
</g>
<g id="forearms_mb">
<path id="Vector 109" d="M8.9947 47.4282L11.1733 42.7078C11.3908 42.2366 11.6446 41.7831 11.9324 41.3514L13.2146 39.4281C13.3242 39.2637 13.5769 39.3075 13.6248 39.4991L13.9454 40.7817C13.9811 40.9245 14.055 41.055 14.1591 41.1591L14.2004 41.2004C14.3922 41.3922 14.6524 41.5 14.9237 41.5H15.8192C15.9393 41.5 16.0589 41.4853 16.1754 41.4562L17.5149 41.1213C17.7613 41.0597 18 41.246 18 41.5C18 43.1259 17.492 44.7113 16.5469 46.0343L15.5 47.5L11.8163 53.0256C11.6058 53.3413 11.4225 53.6743 11.2684 54.021L10.3125 56.1719C9.81841 57.2836 8.71602 58 7.49953 58H7.19508C7.06587 58 6.93751 57.9792 6.81493 57.9383C6.12092 57.707 5.7927 56.9146 6.11986 56.2603L7.29188 53.9162C7.43001 53.64 7.53069 53.3465 7.59127 53.0437L8.26849 49.6576C8.42229 48.8885 8.66604 48.1402 8.9947 47.4282Z" stroke="black" stroke-width="0.5"/>
<path id="Vector 125" d="M59.0053 47.4282L56.8267 42.7078C56.6092 42.2366 56.3554 41.7831 56.0676 41.3514L54.7854 39.4281C54.6758 39.2637 54.4231 39.3075 54.3752 39.4991L54.0546 40.7817C54.0189 40.9245 53.945 41.055 53.8409 41.1591L53.7996 41.2004C53.6078 41.3922 53.3476 41.5 53.0763 41.5H52.1808C52.0607 41.5 51.9411 41.4853 51.8246 41.4562L50.4851 41.1213C50.2387 41.0597 50 41.246 50 41.5C50 43.1259 50.508 44.7113 51.4531 46.0343L52.5 47.5L56.1837 53.0256C56.3942 53.3413 56.5775 53.6743 56.7316 54.021L57.6875 56.1719C58.1816 57.2836 59.284 58 60.5005 58H60.8049C60.9341 58 61.0625 57.9792 61.1851 57.9383C61.8791 57.707 62.2073 56.9146 61.8801 56.2603L60.7081 53.9162C60.57 53.64 60.4693 53.3465 60.4087 53.0437L59.7315 49.6576C59.5777 48.8885 59.334 48.1402 59.0053 47.4282Z" stroke="black" stroke-width="0.5"/>
</g>
<g id="biceps_mb">
<path id="Vector 108" d="M15.5 31.5L15.749 30.8776C16.2362 29.6595 17.1091 28.6346 18.234 27.9596C18.7419 27.6549 19.292 27.427 19.8666 27.2834L20.9468 27.0133C20.9821 27.0045 21.0184 27 21.0548 27C21.3007 27 21.5 27.1993 21.5 27.4452V28.618C21.5 28.8692 21.5585 29.117 21.6708 29.3416L21.75 29.5C21.9144 29.8288 22 30.1914 22 30.559V32.3772C22 33.452 21.8267 34.5198 21.4868 35.5395L20.8546 37.4361C20.6203 38.1392 20.2565 38.7922 19.7821 39.3615C18.6529 40.7165 16.9802 41.5 15.2163 41.5H15C14.4123 41.5 13.9 41.1 13.7575 40.5299L13.5965 39.8861C13.5327 39.6309 13.5167 39.3661 13.5494 39.1051L13.854 36.6684C13.951 35.8921 14.1388 35.13 14.4134 34.3975L15.5 31.5Z" stroke="black" stroke-width="0.5"/>
<path id="Vector 124" d="M52.5 31.5L52.251 30.8776C51.7638 29.6595 50.8909 28.6346 49.766 27.9596C49.2581 27.6549 48.708 27.427 48.1334 27.2834L47.0532 27.0133C47.0179 27.0045 46.9816 27 46.9452 27C46.6993 27 46.5 27.1993 46.5 27.4452V28.618C46.5 28.8692 46.4415 29.117 46.3292 29.3416L46.25 29.5C46.0856 29.8288 46 30.1914 46 30.559V32.3772C46 33.452 46.1733 34.5198 46.5132 35.5395L47.1454 37.4361C47.3797 38.1392 47.7435 38.7922 48.2179 39.3615C49.3471 40.7165 51.0198 41.5 52.7837 41.5H53C53.5877 41.5 54.1 41.1 54.2425 40.5299L54.4035 39.8861C54.4673 39.6309 54.4833 39.3661 54.4506 39.1051L54.146 36.6684C54.049 35.8921 53.8612 35.13 53.5866 34.3975L52.5 31.5Z" stroke="black" stroke-width="0.5"/>
</g>
<g id="infraspinatus_mb">
<path id="Vector 107" d="M26.375 20L26.3733 20.007M26.3733 20.007V20.007C26.1311 20.9755 25.5778 21.8377 24.7983 22.4614L23.7555 23.2956C23.5856 23.4315 23.4019 23.549 23.2073 23.6463L22.3944 24.0528C21.8463 24.3269 21.5 24.8871 21.5 25.5V25.5V26.5V28.4393C21.5 29.1185 21.7698 29.7698 22.25 30.25V30.25C22.7302 30.7302 23.3815 31 24.0607 31H24.3852C25.1088 31 25.8129 30.7653 26.3918 30.3311L27.2 29.725C27.3947 29.579 27.6316 29.5 27.875 29.5V29.5C28.4963 29.5 29 28.9963 29 28.375V28V25V24.8663C29 24.2925 28.9075 23.7225 28.7261 23.1782L28.5638 22.6913C28.5214 22.5643 28.4624 22.4436 28.3881 22.3322L26.7899 19.9348C26.6786 19.7678 26.4219 19.8123 26.3733 20.007V20.007Z" stroke="black" stroke-width="0.5"/>
<path id="Vector 123" d="M41.625 20L41.6267 20.007M41.6267 20.007V20.007C41.8689 20.9755 42.4222 21.8377 43.2017 22.4614L44.2445 23.2956C44.4144 23.4315 44.5981 23.549 44.7927 23.6463L45.6056 24.0528C46.1537 24.3269 46.5 24.8871 46.5 25.5V25.5V26.5V28.4393C46.5 29.1185 46.2302 29.7698 45.75 30.25V30.25C45.2698 30.7302 44.6185 31 43.9393 31H43.6148C42.8912 31 42.1871 30.7653 41.6082 30.3311L40.8 29.725C40.6053 29.579 40.3684 29.5 40.125 29.5V29.5C39.5037 29.5 39 28.9963 39 28.375V28V25V24.8663C39 24.2925 39.0925 23.7225 39.2739 23.1782L39.4362 22.6913C39.4786 22.5643 39.5376 22.4436 39.6119 22.3322L41.2101 19.9348C41.3214 19.7678 41.5781 19.8123 41.6267 20.007V20.007Z" stroke="black" stroke-width="0.5"/>
</g>
<g id="deltoideus">
<path id="Vector 106" d="M22.9443 19H25.691C26.1378 19 26.5 19.3622 26.5 19.809C26.5 19.9346 26.4708 20.0585 26.4146 20.1708L26 21C25.6712 21.6576 25.1938 22.2297 24.6056 22.6708L23.7278 23.3292C23.5762 23.4428 23.4148 23.5426 23.2454 23.6273L22.3541 24.0729C21.8307 24.3347 21.5 24.8697 21.5 25.4549V26.5548C21.5 26.8007 21.3007 27 21.0548 27C21.0184 27 20.9821 27.0045 20.9468 27.0133L19.27 27.4325C19.0913 27.4772 18.9217 27.5522 18.7685 27.6544L16.8349 28.9434C16.4976 29.1683 16.0497 28.9041 16.0833 28.5L16.3365 25.4624C16.4431 24.1832 16.9282 22.9647 17.7301 21.9623C18.2388 21.3265 18.863 20.7925 19.57 20.3886L21.1801 19.4685C21.7174 19.1615 22.3255 19 22.9443 19Z" stroke="black" stroke-width="0.5"/>
<path id="Vector 122" d="M45.0557 19H42.309C41.8622 19 41.5 19.3622 41.5 19.809C41.5 19.9346 41.5292 20.0585 41.5854 20.1708L42 21C42.3288 21.6576 42.8062 22.2297 43.3944 22.6708L44.2722 23.3292C44.4238 23.4428 44.5852 23.5426 44.7546 23.6273L45.6459 24.0729C46.1693 24.3347 46.5 24.8697 46.5 25.4549V26.5548C46.5 26.8007 46.6993 27 46.9452 27C46.9816 27 47.0179 27.0045 47.0532 27.0133L48.73 27.4325C48.9087 27.4772 49.0783 27.5522 49.2315 27.6544L51.1651 28.9434C51.5024 29.1683 51.9503 28.9041 51.9167 28.5L51.6635 25.4624C51.5569 24.1832 51.0718 22.9647 50.2699 21.9623C49.7612 21.3265 49.137 20.7925 48.43 20.3886L46.8199 19.4685C46.2826 19.1615 45.6745 19 45.0557 19Z" stroke="black" stroke-width="0.5"/>
</g>
<path id="trapezius_mb" d="M29 27.0162V24.8207C29 24.2771 28.9124 23.7371 28.7405 23.2214C28.5811 22.7432 28.351 22.2914 28.058 21.8812L26.4269 19.5976C26.1857 19.2599 26.2439 18.7937 26.5607 18.5256L31.3893 14.4398C32.1065 13.833 33.0155 13.5 33.955 13.5C34.9487 13.5 35.9064 13.8725 36.6389 14.544L40.9926 18.5349C41.2893 18.8069 41.3582 19.2481 41.1585 19.5976L39.7973 21.9798C39.5996 22.3257 39.4365 22.6904 39.3105 23.0684C39.1049 23.6854 39 24.3316 39 24.982V27.0162C39 28.6473 38.601 30.2536 37.8379 31.6951L34.7339 37.5581C34.59 37.83 34.3076 38 34 38C33.6924 38 33.41 37.83 33.2661 37.5581L30.1621 31.6951C29.399 30.2536 29 28.6473 29 27.0162Z" stroke="black" stroke-width="0.5"/>
<path id="bell_mb" d="M36.1294 39.3966L34.8796 38.3254C34.6347 38.1154 34.3226 38 34 38C33.6774 38 33.3653 38.1154 33.1204 38.3254L31.9398 39.3373C30.7086 40.3926 30 41.9333 30 43.5549V43.6521C30 44.8539 29.6245 46.0257 28.9259 47.0037L27.6268 48.8225C27.5443 48.938 27.5 49.0763 27.5 49.2181C27.5 49.3986 27.5717 49.5717 27.6993 49.6993L27.75 49.75C27.9101 49.9101 28.1272 50 28.3536 50H29C29.6403 50 30.2544 50.2544 30.7071 50.7071L33.1464 53.1464C33.3728 53.3728 33.6799 53.5 34 53.5C34.3201 53.5 34.6272 53.3728 34.8536 53.1464L37.2929 50.7071C37.7456 50.2544 38.3597 50 39 50H39.6464C39.8728 50 40.0899 49.9101 40.25 49.75L40.2911 49.7089C40.4249 49.5751 40.5 49.3937 40.5 49.2046C40.5 49.0709 40.4624 48.9399 40.3916 48.8265L38.8142 46.3028C38.2821 45.4514 38 44.4677 38 43.4637C38 41.9 37.3167 40.4143 36.1294 39.3966Z" stroke="black" stroke-width="0.5"/>
<path id="head_mb" d="M29 9.5V5.57464C29 4.55253 29.3315 3.55798 29.9448 2.74029V2.74029C30.3114 2.25141 30.7695 1.83831 31.2935 1.52391L32.0271 1.08374C32.6637 0.701771 33.3922 0.5 34.1346 0.5V0.5C35.0209 0.5 35.8833 0.787465 36.5923 1.31925L36.9 1.55C37.298 1.84848 37.6515 2.20202 37.95 2.6V2.6C38.6316 3.50876 39 4.61406 39 5.75V9.5M29 9.5L29.4922 10.3203C30.1577 11.4296 31.0322 12.3992 32.0671 13.1753L32.5 13.5M29 9.5L29.8727 14.7361V14.7361C29.926 15.0558 30.3184 15.1816 30.5476 14.9524L31.3844 14.1156C31.461 14.039 31.5494 13.9753 31.6462 13.9269L32.5 13.5M32.5 13.5H35.5M35.5 13.5L35.9329 13.1753C36.9678 12.3991 37.8423 11.4296 38.5078 10.3203L39 9.5M35.5 13.5L36.3538 13.9269C36.4506 13.9753 36.539 14.039 36.6156 14.1156L37.4524 14.9524C37.6816 15.1816 38.074 15.0558 38.1273 14.7361V14.7361L39 9.5" stroke="black" stroke-width="0.5"/>
</g>
</svg>
