<svg width="51" height="116" viewBox="0 0 51 116" fill="none" xmlns="http://www.w3.org/2000/svg">
<g id="back">
<g id="crus">
<path id="Vector 53" d="M14.3995 98.7965L13.5 92.5L13.8656 93.9626C13.9549 94.3198 14.0831 94.6661 14.2477 94.9955L14.8 96.1C14.9298 96.3596 15.1404 96.5702 15.4 96.7C15.7777 96.8889 16.2223 96.8889 16.6 96.7L16.9117 96.5442C16.9702 96.5149 17.0236 96.4764 17.0698 96.4302C17.3074 96.1926 17.6926 96.1926 17.9302 96.4302L18.2748 96.7748C18.419 96.919 18.6146 97 18.8185 97C18.9379 97 19.0556 96.9722 19.1623 96.9188L19.9704 96.5148C19.99 96.505 20.0079 96.4921 20.0234 96.4766C20.1662 96.3338 20.4074 96.4629 20.3678 96.6609L19.5 101L18.7909 103.836C18.5977 104.609 18.5 105.403 18.5 106.2V107.941C18.5 108.309 18.5856 108.671 18.75 109C18.9144 109.329 19 109.691 19 110.059V111.649C19 112.524 18.7024 113.372 18.1562 114.055L17.7665 114.542C17.282 115.147 16.5485 115.5 15.773 115.5H15.6514C15.2267 115.5 14.8114 115.374 14.458 115.139C13.8595 114.74 13.5 114.068 13.5 113.349V112.582C13.5 112.196 13.4379 111.814 13.3161 111.448L13.1335 110.901C13.0451 110.635 13 110.357 13 110.078C13 109.388 13.2741 108.726 13.7621 108.238L14.1464 107.854C14.2769 107.723 14.5 107.816 14.5 108V109.25C14.5 109.388 14.6119 109.5 14.75 109.5C14.8881 109.5 15 109.388 15 109.25V108L14.5 102.5V100.211C14.5 99.7375 14.4664 99.2649 14.3995 98.7965Z" stroke="black" stroke-width="0.5"/>
<path id="Vector 69" d="M36.1005 98.7965L37 92.5L36.6344 93.9626C36.5451 94.3198 36.4169 94.6661 36.2523 94.9955L35.7 96.1C35.5702 96.3596 35.3596 96.5702 35.1 96.7C34.7223 96.8889 34.2777 96.8889 33.9 96.7L33.5883 96.5442C33.5298 96.5149 33.4764 96.4764 33.4302 96.4302C33.1926 96.1926 32.8074 96.1926 32.5698 96.4302L32.2252 96.7748C32.081 96.919 31.8854 97 31.6815 97C31.5621 97 31.4444 96.9722 31.3377 96.9188L30.5296 96.5148C30.51 96.505 30.4921 96.4921 30.4766 96.4766C30.3338 96.3338 30.0926 96.4629 30.1322 96.6609L31 101L31.7091 103.836C31.9023 104.609 32 105.403 32 106.2V107.941C32 108.309 31.9144 108.671 31.75 109C31.5856 109.329 31.5 109.691 31.5 110.059V111.649C31.5 112.524 31.7976 113.372 32.3438 114.055L32.7335 114.542C33.218 115.147 33.9515 115.5 34.727 115.5H34.8486C35.2733 115.5 35.6886 115.374 36.042 115.139C36.6405 114.74 37 114.068 37 113.349V112.582C37 112.196 37.0621 111.814 37.1839 111.448L37.3665 110.901C37.4549 110.635 37.5 110.357 37.5 110.078C37.5 109.388 37.2259 108.726 36.7379 108.238L36.3536 107.854C36.2231 107.723 36 107.816 36 108V109.25C36 109.388 35.8881 109.5 35.75 109.5C35.6119 109.5 35.5 109.388 35.5 109.25V108L36 102.5V100.211C36 99.7375 36.0336 99.2649 36.1005 98.7965Z" stroke="black" stroke-width="0.5"/>
</g>
<g id="gastrocnemius_b">
<path id="Vector 68" d="M29 92.2305V91.7827C29 90.3211 29.5806 88.9194 30.6141 87.8859C30.8708 87.6292 31.1521 87.3986 31.454 87.1973L31.75 87C32.0706 86.7863 32.5 87.0161 32.5 87.4014V89.8239C32.5 89.941 32.5116 90.0579 32.5345 90.1727L32.8058 91.529C32.935 92.1748 33 92.8317 33 93.4902V95.691C33 95.8942 32.9527 96.0946 32.8618 96.2764C32.6401 96.7199 32.1868 97 31.691 97H31.6019C31.2165 97 30.8469 96.8469 30.5744 96.5744L30.3313 96.3313C30.1127 96.1127 29.9408 95.852 29.826 95.5649L29.4715 94.6787C29.16 93.9001 29 93.0691 29 92.2305Z" stroke="black" stroke-width="0.5"/>
<path id="Vector 52" d="M21.5 92.2305V91.7827C21.5 90.3211 20.9194 88.9194 19.8859 87.8859C19.6292 87.6292 19.3479 87.3986 19.046 87.1973L18.75 87C18.4294 86.7863 18 87.0161 18 87.4014V89.8239C18 89.941 17.9884 90.0579 17.9655 90.1727L17.6942 91.529C17.565 92.1748 17.5 92.8317 17.5 93.4902V95.691C17.5 95.8942 17.5473 96.0946 17.6382 96.2764C17.8599 96.7199 18.3132 97 18.809 97H18.8981C19.2835 97 19.6531 96.8469 19.9256 96.5744L20.1687 96.3313C20.3873 96.1127 20.5592 95.852 20.674 95.5649L21.0285 94.6787C21.34 93.9001 21.5 93.0691 21.5 92.2305Z" stroke="black" stroke-width="0.5"/>
<path id="Vector 51" d="M13.5703 88.6484L14.3049 84.9754C14.4032 84.4842 14.9416 84.2208 15.3897 84.4449C15.4628 84.4814 15.5294 84.5294 15.5872 84.5872L16 85L16.8232 85.8232C16.9364 85.9364 17.0899 86 17.25 86C17.4101 86 17.5636 86.0636 17.6768 86.1768L17.75 86.25C17.9101 86.4101 18 86.6272 18 86.8536V89.3247C18 89.7738 17.9556 90.2218 17.8676 90.6622L17.6324 91.8378C17.5444 92.2782 17.5 92.7262 17.5 93.1753V95.2929C17.5 95.7456 17.3201 96.1799 17 96.5L16.8536 96.6464C16.6272 96.8728 16.3201 97 16 97C15.6799 97 15.3728 96.8728 15.1464 96.6464L15.1407 96.6407C15.0475 96.5475 14.9699 96.4399 14.911 96.322L14.3889 95.2779C13.8043 94.1087 13.5 92.8195 13.5 91.5123V89.3585C13.5 89.1201 13.5236 88.8822 13.5703 88.6484Z" stroke="black" stroke-width="0.5"/>
<path id="Vector 67" d="M36.9297 88.6484L36.1951 84.9754C36.0968 84.4842 35.5584 84.2208 35.1103 84.4449C35.0372 84.4814 34.9706 84.5294 34.9128 84.5872L34.5 85L33.6768 85.8232C33.5636 85.9364 33.4101 86 33.25 86C33.0899 86 32.9364 86.0636 32.8232 86.1768L32.75 86.25C32.5899 86.4101 32.5 86.6272 32.5 86.8536V89.3247C32.5 89.7738 32.5444 90.2218 32.6324 90.6622L32.8676 91.8378C32.9556 92.2782 33 92.7262 33 93.1753V95.2929C33 95.7456 33.1799 96.1799 33.5 96.5L33.6464 96.6464C33.8728 96.8728 34.1799 97 34.5 97C34.8201 97 35.1272 96.8728 35.3536 96.6464L35.3593 96.6407C35.4525 96.5475 35.5301 96.4399 35.589 96.322L36.1111 95.2779C36.6957 94.1087 37 92.8195 37 91.5123V89.3585C37 89.1201 36.9764 88.8822 36.9297 88.6484Z" stroke="black" stroke-width="0.5"/>
</g>
<g id="kirill_ne_podpisal">
<path id="Vector 50" d="M15.4631 84.4816L14.8903 84.1951C14.7931 84.1465 14.8276 84 14.9363 84C14.9754 84 15.011 83.978 15.0285 83.9431L16 82L16.4429 80.8927C16.561 80.5974 17 80.6819 17 81V83.9258C17 83.9751 17.0049 84.0244 17.0146 84.0728L17.285 85.425C17.3494 85.7471 16.957 85.957 16.7248 85.7248L15.5292 84.5292C15.5098 84.5098 15.4875 84.4938 15.4631 84.4816Z" stroke="black" stroke-width="0.5"/>
<path id="Vector 66" d="M35.0369 84.4816L35.6097 84.1951C35.7069 84.1465 35.6724 84 35.5637 84C35.5246 84 35.489 83.978 35.4715 83.9431L34.5 82L34.0571 80.8927C33.939 80.5974 33.5 80.6819 33.5 81V83.9258C33.5 83.9751 33.4951 84.0244 33.4854 84.0728L33.215 85.425C33.1506 85.7471 33.543 85.957 33.7752 85.7248L34.9708 84.5292C34.9902 84.5098 35.0125 84.4938 35.0369 84.4816Z" stroke="black" stroke-width="0.5"/>
</g>
<g id="biceps_femoris_b">
<path id="Vector 49" d="M17 83V80.2632C17 79.7613 17.1169 79.2663 17.3413 78.8174C17.4468 78.6064 17.5289 78.3846 17.5861 78.1557L17.7575 77.4701C17.9185 76.8258 18 76.1642 18 75.5V73.3276C18 72.7768 18.0455 72.2269 18.1361 71.6836L18.5 69.5L18.991 67.536C18.997 67.5121 19.0056 67.4889 19.0166 67.4668C19.1646 67.1708 19.6061 67.2424 19.6529 67.5701L19.9863 69.9041C19.9954 69.9679 20.0103 70.0308 20.0306 70.0919L20.5 71.5L21.4409 74.7933C21.4759 74.9156 21.5877 75 21.715 75C21.8724 75 22 75.1276 22 75.285V78V81.7893C22 82.2625 21.9664 82.7351 21.8995 83.2035L21.5328 85.7701C21.511 85.9232 21.5 86.0776 21.5 86.2322V89.1808C21.5 89.3571 21.3571 89.5 21.1808 89.5C21.0686 89.5 20.9647 89.4412 20.907 89.345L19.9966 87.8276C19.6761 87.2936 19.1752 86.8917 18.5843 86.6948L18.3975 86.6325C18.1361 86.5454 17.8986 86.3986 17.7037 86.2037C17.5688 86.0688 17.4565 85.913 17.3712 85.7424L17.2963 85.5926C17.1014 85.2029 17 84.7732 17 84.3374V83Z" stroke="black" stroke-width="0.5"/>
<path id="Vector 65" d="M33.5 83V80.2632C33.5 79.7613 33.3831 79.2663 33.1587 78.8174C33.0532 78.6064 32.9711 78.3846 32.9139 78.1557L32.7425 77.4701C32.5815 76.8258 32.5 76.1642 32.5 75.5V73.3276C32.5 72.7768 32.4545 72.2269 32.3639 71.6836L32 69.5L31.509 67.536C31.503 67.5121 31.4944 67.4889 31.4834 67.4668C31.3354 67.1708 30.8939 67.2424 30.8471 67.5701L30.5137 69.9041C30.5046 69.9679 30.4897 70.0308 30.4694 70.0919L30 71.5L29.0591 74.7933C29.0241 74.9156 28.9123 75 28.785 75C28.6276 75 28.5 75.1276 28.5 75.285V78V81.7893C28.5 82.2625 28.5336 82.7351 28.6005 83.2035L28.9672 85.7701C28.989 85.9232 29 86.0776 29 86.2322V89.1808C29 89.3571 29.1429 89.5 29.3192 89.5C29.4314 89.5 29.5353 89.4412 29.593 89.345L30.5034 87.8276C30.8239 87.2936 31.3248 86.8917 31.9157 86.6948L32.1025 86.6325C32.3639 86.5454 32.6014 86.3986 32.7963 86.2037C32.9312 86.0688 33.0435 85.913 33.1288 85.7424L33.2037 85.5926C33.3986 85.2029 33.5 84.7732 33.5 84.3374V83Z" stroke="black" stroke-width="0.5"/>
</g>
<g id="adductor_magnus_b">
<path id="Vector 48" d="M19.9598 69.6785L19.562 66.4961C19.5291 66.2327 19.7345 66 20 66C20.6623 66 21.3203 65.8932 21.9487 65.6838L22.177 65.6077C22.3921 65.536 22.6018 65.4491 22.8046 65.3477L22.8675 65.3162C23.2864 65.1068 23.6688 64.8312 24 64.5C24.1246 64.3754 24.3321 64.5037 24.2764 64.6708L24 65.5L23.2851 67.6446C23.0954 68.2137 22.9573 68.7987 22.8725 69.3926L22.5 72L22.1342 74.9263C22.094 75.2479 21.661 75.3221 21.5161 75.0322C21.5054 75.0108 21.4971 74.9883 21.4913 74.9651L21 73L20.1025 70.3074C20.0343 70.103 19.9865 69.8923 19.9598 69.6785Z" stroke="black" stroke-width="0.5"/>
<path id="Vector 64" d="M30.5402 69.6785L30.938 66.4961C30.9709 66.2327 30.7655 66 30.5 66C29.8377 66 29.1797 65.8932 28.5513 65.6838L28.323 65.6077C28.1079 65.536 27.8982 65.4491 27.6954 65.3477L27.6325 65.3162C27.2136 65.1068 26.8312 64.8312 26.5 64.5C26.3754 64.3754 26.1679 64.5037 26.2236 64.6708L26.5 65.5L27.2149 67.6446C27.4046 68.2137 27.5427 68.7987 27.6275 69.3926L28 72L28.3658 74.9263C28.406 75.2479 28.839 75.3221 28.9839 75.0322C28.9946 75.0108 29.0029 74.9883 29.0087 74.9651L29.5 73L30.3975 70.3074C30.4657 70.103 30.5135 69.8923 30.5402 69.6785Z" stroke="black" stroke-width="0.5"/>
</g>
<g id="vastus_lateralis_b">
<path id="Vector 47" d="M13.5 70.5V64L13.8883 60.1166L13.9556 59.4439C13.967 59.3303 14.1231 59.3082 14.1654 59.4143C14.1978 59.4952 14.3072 59.5074 14.3566 59.4356L14.7167 58.912C14.8031 58.7863 15 58.8475 15 59C15 59.6642 15.0815 60.3258 15.2425 60.9701L15.3511 61.4045C15.4501 61.8003 15.5921 62.1841 15.7745 62.549C15.9245 62.8491 16.1013 63.135 16.3025 63.4034L17.213 64.6173C17.4017 64.869 17.6465 65.0733 17.9279 65.214L18.9535 65.7268C19.2671 65.8835 19.4177 66.247 19.3068 66.5796L18.8131 68.0606C18.6049 68.6853 18.4589 69.3291 18.3772 69.9825L18 73V75.1393C18 76.6918 17.6385 78.2229 16.9443 79.6115L16.5 80.5L15.5205 82.9488C15.5069 82.9829 15.4898 83.0154 15.4694 83.0458L14.7774 84.084C14.6943 84.2086 14.5 84.1498 14.5 84V82V79.9005C14.5 78.9714 14.3705 78.0468 14.1152 77.1533L13.8848 76.3467C13.6295 75.4532 13.5 74.5286 13.5 73.5995V70.5Z" stroke="black" stroke-width="0.5"/>
<path id="Vector 63" d="M37 70.5V64L36.6117 60.1166L36.5444 59.4439C36.533 59.3303 36.3769 59.3082 36.3346 59.4143C36.3022 59.4952 36.1928 59.5074 36.1434 59.4356L35.7833 58.912C35.6969 58.7863 35.5 58.8475 35.5 59C35.5 59.6642 35.4185 60.3258 35.2575 60.9701L35.1489 61.4045C35.0499 61.8003 34.9079 62.1841 34.7255 62.549C34.5755 62.8491 34.3987 63.135 34.1975 63.4034L33.287 64.6173C33.0983 64.869 32.8535 65.0733 32.5721 65.214L31.5465 65.7268C31.2329 65.8835 31.0823 66.247 31.1932 66.5796L31.6869 68.0606C31.8951 68.6853 32.0411 69.3291 32.1228 69.9825L32.5 73V75.1393C32.5 76.6918 32.8615 78.2229 33.5557 79.6115L34 80.5L34.9795 82.9488C34.9931 82.9829 35.0102 83.0154 35.0306 83.0458L35.7226 84.084C35.8057 84.2086 36 84.1498 36 84V82V79.9005C36 78.9714 36.1295 78.0468 36.3848 77.1533L36.6152 76.3467C36.8705 75.4532 37 74.5286 37 73.5995V70.5Z" stroke="black" stroke-width="0.5"/>
</g>
<g id="gluteus_maximus_b">
<path id="Vector 46" d="M20 51.5V51.5C20.3321 51.5 20.6629 51.5407 20.9851 51.6213L21.6883 51.7971C22.2254 51.9314 22.7355 52.157 23.1962 52.4641L23.4033 52.6022C23.7972 52.8648 24.1352 53.2028 24.3978 53.5967V53.5967C24.7905 54.1857 25 54.8778 25 55.5856V59V61.3657C25 61.787 24.9483 62.2067 24.8462 62.6154L24.7572 62.971C24.5889 63.6443 24.2408 64.2592 23.75 64.75V64.75C23.2592 65.2408 22.6443 65.5889 21.971 65.7572L21.5609 65.8598C21.1884 65.9529 20.8058 66 20.4219 66H20.1514C19.4006 66 18.6667 65.7778 18.042 65.3613V65.3613C17.6833 65.1222 17.3678 64.8238 17.1092 64.4789L16.3708 63.4944C16.1241 63.1655 15.9075 62.815 15.7236 62.4472L15.6626 62.3251C15.2268 61.4537 15 60.4928 15 59.5184V59.5184C15 58.8439 15.1087 58.1738 15.3221 57.5338L15.7846 56.1461C15.928 55.7159 16.1018 55.2964 16.3046 54.8909L16.3675 54.7649C16.7864 53.9271 17.3377 53.1623 18 52.5V52.5L18.2929 52.2071C18.7456 51.7544 19.3597 51.5 20 51.5V51.5ZM20 51.5L19.5 51" stroke="black" stroke-width="0.5"/>
<path id="Vector 62" d="M30.5 51.5V51.5C30.1679 51.5 29.8371 51.5407 29.5149 51.6213L28.8117 51.7971C28.2746 51.9314 27.7645 52.157 27.3038 52.4641L27.0967 52.6022C26.7028 52.8648 26.3648 53.2028 26.1022 53.5967V53.5967C25.7095 54.1857 25.5 54.8778 25.5 55.5856V59V61.3657C25.5 61.787 25.5517 62.2067 25.6538 62.6154L25.7428 62.971C25.9111 63.6443 26.2592 64.2592 26.75 64.75V64.75C27.2408 65.2408 27.8557 65.5889 28.529 65.7572L28.9391 65.8598C29.3116 65.9529 29.6942 66 30.0781 66H30.3486C31.0994 66 31.8333 65.7778 32.458 65.3613V65.3613C32.8167 65.1222 33.1322 64.8238 33.3908 64.4789L34.1292 63.4944C34.3759 63.1655 34.5925 62.815 34.7764 62.4472L34.8374 62.3251C35.2732 61.4537 35.5 60.4928 35.5 59.5184V59.5184C35.5 58.8439 35.3913 58.1738 35.1779 57.5338L34.7154 56.1461C34.572 55.7159 34.3982 55.2964 34.1954 54.8909L34.1325 54.7649C33.7136 53.9271 33.1623 53.1623 32.5 52.5V52.5L32.2071 52.2071C31.7544 51.7544 31.1403 51.5 30.5 51.5V51.5ZM30.5 51.5L31 51" stroke="black" stroke-width="0.5"/>
</g>
<g id="gluteus_medius_b">
<path id="Vector 45" d="M14.6002 54.6492L15.3819 51.9133C15.4518 51.6687 15.6754 51.5 15.9298 51.5C15.9764 51.5 16.0229 51.4943 16.0681 51.483L17.0299 51.2425C17.6742 51.0815 18.3358 51 19 51C19.2996 51 19.4172 51.3885 19.168 51.5547L18.5437 51.9709C18.5146 51.9902 18.4876 52.0124 18.4629 52.0371L17.9316 52.5684C17.3146 53.1854 16.8011 53.8979 16.4108 54.6784L16.3046 54.8909C16.1018 55.2964 15.928 55.7159 15.7846 56.1461L15.0222 58.4334C15.0075 58.4776 14.9869 58.5197 14.961 58.5585L14.2774 59.584C14.1943 59.7086 14 59.6498 14 59.5L14.4597 55.3626C14.4865 55.1213 14.5335 54.8827 14.6002 54.6492Z" stroke="black" stroke-width="0.5"/>
<path id="Vector 61" d="M35.8998 54.6492L35.1181 51.9133C35.0482 51.6687 34.8246 51.5 34.5702 51.5C34.5236 51.5 34.4771 51.4943 34.4319 51.483L33.4701 51.2425C32.8258 51.0815 32.1642 51 31.5 51C31.2004 51 31.0828 51.3885 31.332 51.5547L31.9563 51.9709C31.9854 51.9902 32.0124 52.0124 32.0371 52.0371L32.5684 52.5684C33.1854 53.1854 33.6989 53.8979 34.0892 54.6784L34.1954 54.8909C34.3982 55.2964 34.572 55.7159 34.7154 56.1461L35.4778 58.4334C35.4925 58.4776 35.5131 58.5197 35.539 58.5585L36.2226 59.584C36.3057 59.7086 36.5 59.6498 36.5 59.5L36.0403 55.3626C36.0135 55.1213 35.9665 54.8827 35.8998 54.6492Z" stroke="black" stroke-width="0.5"/>
</g>
<g id="hand_b">
<path id="Vector 44" d="M4 59.5L4.41439 58.8784C4.71735 58.424 5.36031 58.3603 5.74651 58.7465L5.79289 58.7929C5.9255 58.9255 6.10536 59 6.29289 59H6.54505C6.79631 59 7 59.2037 7 59.455C7 59.4849 7.00296 59.5148 7.00883 59.5442L7.5 62L8 63.5L8.44563 65.2825C8.47936 65.4174 8.43983 65.5602 8.34149 65.6585C8.16483 65.8352 7.8707 65.806 7.73211 65.5982L7.06704 64.6006C7.02255 64.5338 6.98715 64.4614 6.96178 64.3853L6.89441 64.1832C6.71321 63.6396 6.02326 63.4767 5.61807 63.8819C5.54026 63.9597 5.48001 64.0533 5.44137 64.1563L4.55238 66.527C4.23766 67.3663 3.34336 67.8358 2.4738 67.6184C2.16377 67.5409 1.88063 67.3806 1.65466 67.1547L1.09891 66.5989C0.70839 66.2084 0.442203 65.711 0.333892 65.1695C0.128797 64.144 0.512825 63.0897 1.32945 62.4364L2.06852 61.8452C2.35502 61.616 2.6114 61.3515 2.83154 61.0579L4 59.5Z" stroke="black" stroke-width="0.5"/>
<path id="Vector 60" d="M46.5 59.5L46.0856 58.8784C45.7827 58.424 45.1397 58.3603 44.7535 58.7465L44.7071 58.7929C44.5745 58.9255 44.3946 59 44.2071 59H43.955C43.7037 59 43.5 59.2037 43.5 59.455C43.5 59.4849 43.497 59.5148 43.4912 59.5442L43 62L42.5 63.5L42.0544 65.2825C42.0206 65.4174 42.0602 65.5602 42.1585 65.6585C42.3352 65.8352 42.6293 65.806 42.7679 65.5982L43.433 64.6006C43.4775 64.5338 43.5129 64.4614 43.5382 64.3853L43.6056 64.1832C43.7868 63.6396 44.4767 63.4767 44.8819 63.8819C44.9597 63.9597 45.02 64.0533 45.0586 64.1563L45.9476 66.527C46.2623 67.3663 47.1566 67.8358 48.0262 67.6184C48.3362 67.5409 48.6194 67.3806 48.8453 67.1547L49.4011 66.5989C49.7916 66.2084 50.0578 65.711 50.1661 65.1695C50.3712 64.144 49.9872 63.0897 49.1706 62.4364L48.4315 61.8452C48.145 61.616 47.8886 61.3515 47.6685 61.0579L46.5 59.5Z" stroke="black" stroke-width="0.5"/>
</g>
<g id="forearms_b">
<path id="Vector 43" d="M12.129 46.7261L12.3639 45.3164C12.4545 44.7731 12.5 44.2232 12.5 43.6724V42V41.5C12.5 41.2703 12.2583 41.1209 12.0528 41.2236L11.6273 41.4363C11.5436 41.4782 11.4513 41.5 11.3576 41.5H10.9142C10.649 41.5 10.3946 41.3946 10.2071 41.2071L9.93019 40.9302C9.6926 40.6926 9.3074 40.6926 9.06981 40.9302C9.02357 40.9764 8.98509 41.0298 8.95585 41.0883L7.5989 43.8022C7.20141 44.5972 6.91168 45.4416 6.73736 46.3132L6 50L5.5 54.5L5.10398 57.6682C5.04167 58.1666 5.30272 58.6514 5.75205 58.876C5.91463 58.9573 6.09463 59 6.27639 59C6.71987 59 7.12528 58.7494 7.32361 58.3528L10.1822 52.6356C10.3938 52.2124 10.5751 51.7747 10.7247 51.3258L11.7519 48.2443C11.917 47.7489 12.0431 47.2412 12.129 46.7261Z" stroke="black" stroke-width="0.5"/>
<path id="Vector 59" d="M38.371 46.7261L38.1361 45.3164C38.0455 44.7731 38 44.2232 38 43.6724V42V41.5C38 41.2703 38.2417 41.1209 38.4472 41.2236L38.8727 41.4363C38.9564 41.4782 39.0487 41.5 39.1424 41.5H39.5858C39.851 41.5 40.1054 41.3946 40.2929 41.2071L40.5698 40.9302C40.8074 40.6926 41.1926 40.6926 41.4302 40.9302C41.4764 40.9764 41.5149 41.0298 41.5442 41.0883L42.9011 43.8022C43.2986 44.5972 43.5883 45.4416 43.7626 46.3132L44.5 50L45 54.5L45.396 57.6682C45.4583 58.1666 45.1973 58.6514 44.7479 58.876C44.5854 58.9573 44.4054 59 44.2236 59C43.7801 59 43.3747 58.7494 43.1764 58.3528L40.3178 52.6356C40.1062 52.2124 39.9249 51.7747 39.7753 51.3258L38.7481 48.2443C38.583 47.7489 38.4569 47.2412 38.371 46.7261Z" stroke="black" stroke-width="0.5"/>
</g>
<g id="triceps_brachii_b">
<path id="Vector 42" d="M9.74931 31.0014L10.3382 29.8236C10.4374 29.6253 10.6401 29.5 10.8618 29.5C10.9527 29.5 11.0423 29.4788 11.1236 29.4382L11.7686 29.1157C11.9227 29.0387 12.082 28.9727 12.2454 28.9182L13.233 28.589C13.4098 28.5301 13.5951 28.5 13.7815 28.5H14.3559C14.4482 28.5 14.5367 28.4633 14.6019 28.3981C14.7848 28.2152 15.0962 28.2887 15.178 28.5341L15.4544 29.3633C15.4846 29.4538 15.5 29.5487 15.5 29.6441V31.7893C15.5 32.2625 15.4664 32.7351 15.3995 33.2035L15.187 34.6907C15.0629 35.5598 14.8248 36.4087 14.479 37.2157L13.6904 39.0556C13.5639 39.3508 13.4026 39.6298 13.2099 39.8868L12.4922 40.8437C12.1824 41.2568 11.6961 41.5 11.1796 41.5C10.7445 41.5 10.3271 41.3271 10.0194 41.0194L9.78028 40.7803C9.28397 40.284 9.02358 39.5991 9.0648 38.8984L9.46726 32.0565C9.48886 31.6893 9.58482 31.3304 9.74931 31.0014Z" stroke="black" stroke-width="0.5"/>
<path id="Vector 58" d="M40.7507 31.0014L40.1618 29.8236C40.0626 29.6253 39.8599 29.5 39.6382 29.5C39.5473 29.5 39.4577 29.4788 39.3764 29.4382L38.7314 29.1157C38.5773 29.0387 38.418 28.9727 38.2546 28.9182L37.267 28.589C37.0902 28.5301 36.9049 28.5 36.7185 28.5H36.1441C36.0518 28.5 35.9633 28.4633 35.8981 28.3981C35.7152 28.2152 35.4038 28.2887 35.322 28.5341L35.0456 29.3633C35.0154 29.4538 35 29.5487 35 29.6441V31.7893C35 32.2625 35.0336 32.7351 35.1005 33.2035L35.313 34.6907C35.4371 35.5598 35.6752 36.4087 36.021 37.2157L36.8096 39.0556C36.9361 39.3508 37.0974 39.6298 37.2901 39.8868L38.0078 40.8437C38.3176 41.2568 38.8039 41.5 39.3204 41.5C39.7555 41.5 40.1729 41.3271 40.4806 41.0194L40.7197 40.7803C41.216 40.284 41.4764 39.5991 41.4352 38.8984L41.0327 32.0565C41.0111 31.6893 40.9152 31.3304 40.7507 31.0014Z" stroke="black" stroke-width="0.5"/>
</g>
<g id="obliquus_externus_abdominis_b">
<path id="Vector 41" d="M16.5 49L17.2374 47.1565C17.3617 46.8457 17.7633 46.7633 18 47C18.3312 47.3312 18.6068 47.7136 18.8162 48.1325L19.2764 49.0528C19.4234 49.3469 19.5 49.6712 19.5 50V50.5C19.5 50.7761 19.2761 51 19 51H18C17.3424 51 16.6938 51.1531 16.1056 51.4472L16 51.5C15.6797 51.6602 15.3398 51.3203 15.5 51L16.5 49Z" stroke="black" stroke-width="0.5"/>
<path id="Vector 57" d="M34 49L33.2626 47.1565C33.1383 46.8457 32.7367 46.7633 32.5 47C32.1688 47.3312 31.8932 47.7136 31.6838 48.1325L31.2236 49.0528C31.0766 49.3469 31 49.6712 31 50V50.5C31 50.7761 31.2239 51 31.5 51H32.5C33.1576 51 33.8062 51.1531 34.3944 51.4472L34.5 51.5C34.8203 51.6602 35.1602 51.3203 35 51L34 49Z" stroke="black" stroke-width="0.5"/>
</g>
<g id="latissimus_dors_b">
<path id="Vector 40" d="M17.4722 36.4073L16.2032 32.1773C16.15 31.9999 16.369 31.869 16.5 32C16.8201 32.3201 17.2544 32.5 17.7071 32.5H18H18.2929C18.7456 32.5 19.1799 32.3201 19.5 32C19.7587 31.7413 20.1893 31.784 20.3922 32.0883L21 33L22 34.5L23 36L24.8442 38.7662C24.9458 38.9187 25 39.0978 25 39.2809C25 39.425 24.9665 39.5671 24.902 39.6959L24.8185 39.863C24.6146 40.2709 24.257 40.581 23.8244 40.7252L23.6796 40.7735C23.2391 40.9203 22.8602 41.2097 22.6026 41.596L22.3355 41.9968C22.1135 42.3298 21.9504 42.6985 21.8533 43.0867L21.7077 43.6691C21.5698 44.221 21.5 44.7876 21.5 45.3565V46.1435C21.5 46.7124 21.4302 47.279 21.2923 47.8309L21.2782 47.8872C21.0941 48.6236 20.7848 49.3228 20.3637 49.9544L20.0155 50.4768C20.0052 50.4922 19.9934 50.5066 19.9803 50.5197C19.8031 50.6969 19.5 50.5714 19.5 50.3208V49.6336C19.5 49.5457 19.4795 49.4591 19.4402 49.3805L18.6409 47.7818C18.5476 47.5951 18.4248 47.4248 18.2772 47.2772C17.795 46.795 17.6012 46.0952 17.7666 45.4336L17.9107 44.8572C17.97 44.62 18 44.3763 18 44.1318V40.7107C18 40.2375 17.9664 39.7649 17.8995 39.2965L17.5137 36.5958C17.5046 36.532 17.4907 36.469 17.4722 36.4073Z" stroke="black" stroke-width="0.5"/>
<path id="Vector 56" d="M33.0278 36.4073L34.2968 32.1773C34.35 31.9999 34.131 31.869 34 32C33.6799 32.3201 33.2456 32.5 32.7929 32.5H32.5H32.2071C31.7544 32.5 31.3201 32.3201 31 32C30.7413 31.7413 30.3107 31.784 30.1078 32.0883L29.5 33L28.5 34.5L27.5 36L25.6558 38.7662C25.5542 38.9187 25.5 39.0978 25.5 39.2809C25.5 39.425 25.5335 39.5671 25.598 39.6959L25.6815 39.863C25.8854 40.2709 26.243 40.581 26.6756 40.7252L26.8204 40.7735C27.2609 40.9203 27.6398 41.2097 27.8974 41.596L28.1645 41.9968C28.3865 42.3298 28.5496 42.6985 28.6467 43.0867L28.7923 43.6691C28.9302 44.221 29 44.7876 29 45.3565V46.1435C29 46.7124 29.0698 47.279 29.2077 47.8309L29.2218 47.8872C29.4059 48.6236 29.7152 49.3228 30.1363 49.9544L30.4845 50.4768C30.4948 50.4922 30.5066 50.5066 30.5197 50.5197C30.6969 50.6969 31 50.5714 31 50.3208V49.6336C31 49.5457 31.0205 49.4591 31.0598 49.3805L31.8591 47.7818C31.9524 47.5951 32.0752 47.4248 32.2228 47.2772C32.705 46.795 32.8988 46.0952 32.7334 45.4336L32.5893 44.8572C32.53 44.62 32.5 44.3763 32.5 44.1318V40.7107C32.5 40.2375 32.5336 39.7649 32.6005 39.2965L32.9863 36.5958C32.9954 36.532 33.0093 36.469 33.0278 36.4073Z" stroke="black" stroke-width="0.5"/>
</g>
<g id="infraspinatus_b">
<path id="Vector 39" d="M15.5 29.5L15.1076 27.5378C15.0371 27.1854 15.0598 26.8206 15.1734 26.4797C15.379 25.863 15.863 25.379 16.4797 25.1734L16.6831 25.1056C16.8934 25.0355 17.0935 24.9377 17.2779 24.8147L18.4078 24.0615C18.4682 24.0212 18.5171 23.9658 18.5495 23.9009C18.7158 23.5684 19.201 23.6029 19.3185 23.9555L19.482 24.446C19.494 24.4819 19.5027 24.5189 19.5081 24.5564L19.8995 27.2965C19.9664 27.7649 20 28.2375 20 28.7107V31V31.191C20 31.6868 19.7199 32.1401 19.2764 32.3618C19.0946 32.4527 18.8942 32.5 18.691 32.5H17.5H17.4494C16.8675 32.5 16.3356 32.1713 16.0754 31.6508C16.0253 31.5506 15.9863 31.4451 15.9591 31.3364L15.5 29.5Z" stroke="black" stroke-width="0.5"/>
<path id="Vector 55" d="M35 29.5L35.3924 27.5378C35.4629 27.1854 35.4402 26.8206 35.3266 26.4797C35.121 25.863 34.637 25.379 34.0203 25.1734L33.8169 25.1056C33.6066 25.0355 33.4065 24.9377 33.2221 24.8147L32.0922 24.0615C32.0318 24.0212 31.9829 23.9658 31.9505 23.9009C31.7842 23.5684 31.299 23.6029 31.1815 23.9555L31.018 24.446C31.006 24.4819 30.9973 24.5189 30.9919 24.5564L30.6005 27.2965C30.5336 27.7649 30.5 28.2375 30.5 28.7107V31V31.191C30.5 31.6868 30.7801 32.1401 31.2236 32.3618C31.4054 32.4527 31.6058 32.5 31.809 32.5H33H33.0506C33.6325 32.5 34.1644 32.1713 34.4246 31.6508C34.4747 31.5506 34.5137 31.4451 34.5409 31.3364L35 29.5Z" stroke="black" stroke-width="0.5"/>
</g>
<g id="deltoideus_b">
<path id="Vector 38" d="M15.8109 20.9378L17.5892 20.5822C17.8017 20.5397 18 20.7022 18 20.9189C18 20.9722 18.0124 21.0248 18.0363 21.0725L18.6734 22.3469C18.879 22.758 18.879 23.242 18.6734 23.6531C18.5598 23.8804 18.3888 24.0742 18.1773 24.2151L17.3214 24.7857C17.1081 24.9279 16.8768 25.0411 16.6335 25.1222L16.1756 25.2748C15.743 25.419 15.3854 25.7291 15.1815 26.137C15.0621 26.3757 15 26.639 15 26.9059V27.5C15 28.0523 14.5523 28.5 14 28.5H13.7094C13.5707 28.5 13.4329 28.5224 13.3013 28.5662L12.1808 28.9397C12.0608 28.9797 11.9467 29.0356 11.8414 29.1057L11.2698 29.4868C10.8611 29.7593 10.3059 29.6119 10.0862 29.1725C10.0295 29.059 10 28.934 10 28.8072V27.3585C10 26.4727 10.2622 25.6067 10.7536 24.8697C10.9175 24.6238 11.1052 24.3948 11.3142 24.1858L12.1435 23.3565C12.7124 22.7876 13.3488 22.2907 14.0386 21.8768L15.2282 21.1631C15.408 21.0552 15.6052 20.979 15.8109 20.9378Z" stroke="black" stroke-width="0.5"/>
<path id="Vector 54" d="M34.6891 20.9378L32.9108 20.5822C32.6983 20.5397 32.5 20.7022 32.5 20.9189C32.5 20.9722 32.4876 21.0248 32.4637 21.0725L31.8266 22.3469C31.621 22.758 31.621 23.242 31.8266 23.6531C31.9402 23.8804 32.1112 24.0742 32.3227 24.2151L33.1786 24.7857C33.3919 24.9279 33.6232 25.0411 33.8665 25.1222L34.3244 25.2748C34.757 25.419 35.1146 25.7291 35.3185 26.137C35.4379 26.3757 35.5 26.639 35.5 26.9059V27.5C35.5 28.0523 35.9477 28.5 36.5 28.5H36.7906C36.9293 28.5 37.0671 28.5224 37.1987 28.5662L38.3192 28.9397C38.4392 28.9797 38.5533 29.0356 38.6586 29.1057L39.2302 29.4868C39.6389 29.7593 40.1941 29.6119 40.4138 29.1725C40.4705 29.059 40.5 28.934 40.5 28.8072V27.3585C40.5 26.4727 40.2378 25.6067 39.7464 24.8697C39.5825 24.6238 39.3948 24.3948 39.1858 24.1858L38.3565 23.3565C37.7876 22.7876 37.1512 22.2907 36.4614 21.8768L35.2718 21.1631C35.092 21.0552 34.8948 20.979 34.6891 20.9378Z" stroke="black" stroke-width="0.5"/>
</g>
<path id="trapezius_b" d="M25 39V39C24.6679 38.6679 24.3778 38.2964 24.1362 37.8937L23 36L21.2269 33.5177C20.7466 32.8452 20.3971 32.0884 20.1967 31.2867V31.2867C20.066 30.7642 20 30.2277 20 29.6891V27.9902C20 27.3317 19.935 26.6748 19.8058 26.029L19.6801 25.4003C19.5603 24.8014 19.3859 24.2147 19.159 23.6475L18.5353 22.0884C18.5118 22.0296 18.4823 21.9735 18.4472 21.9208L17.7774 20.916C17.6588 20.7382 17.7863 20.5 18 20.5V20.5H18.2689C19.0866 20.5 19.9011 20.3997 20.6943 20.2014L22.3057 19.7986C23.0989 19.6003 23.9134 19.5 24.7311 19.5H25.9023C26.6319 19.5 27.3593 19.5799 28.0716 19.7381L30.5238 20.2831C31.1727 20.4273 31.8353 20.5 32.5 20.5V20.5V20.5C32.7137 20.5 32.8412 20.7382 32.7226 20.916L32.0528 21.9208C32.0177 21.9735 31.9882 22.0296 31.9647 22.0884L31.341 23.6475C31.1141 24.2147 30.9397 24.8014 30.8199 25.4003L30.6942 26.029C30.565 26.6748 30.5 27.3317 30.5 27.9902V29.6891C30.5 30.2277 30.434 30.7642 30.3033 31.2867V31.2867C30.1029 32.0884 29.7534 32.8452 29.2731 33.5177L27.5 36L26.3638 37.8937C26.1222 38.2964 25.8321 38.6679 25.5 39V39M25 39V39.75C25 39.8881 25.1119 40 25.25 40V40C25.3881 40 25.5 39.8881 25.5 39.75V39M25 39H25.5" stroke="black" stroke-width="0.5"/>
<path id="bell_b" d="M25.7994 40.0987L25.6118 39.7236C25.5433 39.5866 25.4032 39.5 25.25 39.5C25.0968 39.5 24.9567 39.5866 24.8882 39.7236L24.7006 40.0987C24.5722 40.3557 24.3469 40.551 24.0744 40.6419L23.7076 40.7641C23.251 40.9163 22.8639 41.2269 22.6162 41.6396L22.1422 42.4296C21.722 43.13 21.5 43.9315 21.5 44.7483V46.4004C21.5 47.1287 21.3826 47.8522 21.1523 48.5432L21.1077 48.677C21.036 48.8921 20.9491 49.1018 20.8477 49.3046L20.5598 49.8805C20.5202 49.9596 20.4681 50.0319 20.4055 50.0945L20.0092 50.4908C19.6368 50.8632 19.9005 51.5 20.4272 51.5C20.4756 51.5 20.5237 51.5059 20.5706 51.5177L21.6883 51.7971C22.2254 51.9314 22.7355 52.157 23.1962 52.4641L23.4033 52.6022C23.7972 52.8648 24.1352 53.2028 24.3978 53.5967L24.8711 54.3066C24.9551 54.4327 25 54.5809 25 54.7324V55.25C25 55.3881 25.1119 55.5 25.25 55.5C25.3881 55.5 25.5 55.3881 25.5 55.25V54.7324C25.5 54.5809 25.5449 54.4327 25.6289 54.3066L26.1022 53.5967C26.3648 53.2028 26.7028 52.8648 27.0967 52.6022L27.3038 52.4641C27.7645 52.157 28.2746 51.9314 28.8117 51.7971L29.9294 51.5177C29.9763 51.5059 30.0244 51.5 30.0728 51.5C30.5995 51.5 30.8632 50.8632 30.4908 50.4908L30.0945 50.0945C30.0319 50.0319 29.9798 49.9596 29.9402 49.8805L29.6523 49.3046C29.5509 49.1018 29.464 48.8921 29.3923 48.677L29.3477 48.5432C29.1174 47.8522 29 47.1287 29 46.4004V44.7483C29 43.9315 28.778 43.13 28.3578 42.4296L27.8838 41.6396C27.6361 41.2269 27.249 40.9163 26.7924 40.7641L26.4256 40.6419C26.1531 40.551 25.9278 40.3557 25.7994 40.0987Z" stroke="black" stroke-width="0.5"/>
<g id="head_b">
<path id="neck" d="M21.1342 18.2317L21.1644 18.1712C21.3701 17.7598 21.7905 17.5 22.2504 17.5H28.718C29.1973 17.5 29.6354 17.7708 29.8497 18.1995L29.88 18.26C29.9586 18.4173 30.077 18.5513 30.2233 18.6488L32.584 20.2227C32.7086 20.3057 32.6498 20.5 32.5 20.5C31.8358 20.5 31.1742 20.4185 30.5299 20.2575L29.5 20L27.971 19.6942C27.3252 19.565 26.6683 19.5 26.0098 19.5H24.7311C23.9134 19.5 23.0989 19.6003 22.3057 19.7986L21.5 20L20.6943 20.2014C19.9011 20.3997 19.0866 20.5 18.2689 20.5H18C17.8638 20.5 17.8159 20.3195 17.9341 20.2519L20.7395 18.6488C20.9094 18.5518 21.0467 18.4066 21.1342 18.2317Z" stroke="black" stroke-width="0.5"/>
<path id="head_b_2" d="M25.75 1.25L25.6768 1.32322C25.5636 1.43641 25.4101 1.5 25.25 1.5C25.0899 1.5 24.9364 1.43641 24.8232 1.32322L24.75 1.25C24.5899 1.08993 24.3728 1 24.1464 1H23.9223C23.6469 1 23.3777 1.0815 23.1486 1.23424L22.542 1.63868C22.1833 1.87782 21.8678 2.17621 21.6092 2.52111L21.1536 3.12858C20.7197 3.70701 20.364 4.34004 20.0955 5.01136L19.5 6.5L18.8848 8.65334C18.6295 9.54675 18.5 10.4714 18.5 11.4005V14V16.6464C18.5 16.8728 18.5899 17.0899 18.75 17.25C18.9101 17.4101 19.1272 17.5 19.3536 17.5H22H28.5H31.1464C31.3728 17.5 31.5899 17.4101 31.75 17.25C31.9101 17.0899 32 16.8728 32 16.6464V14V11.4005C32 10.4714 31.8705 9.54675 31.6152 8.65334L31 6.5L30.4045 5.01136C30.136 4.34004 29.7803 3.70701 29.3464 3.12858L28.8908 2.52111C28.6322 2.17621 28.3167 1.87782 27.958 1.63868L27.3514 1.23424C27.1223 1.0815 26.8531 1 26.5777 1H26.3536C26.1272 1 25.9101 1.08993 25.75 1.25Z" stroke="black" stroke-width="0.5"/>
</g>
</g>
</svg>
