<svg width="55" height="116" viewBox="0 0 55 116" fill="none" xmlns="http://www.w3.org/2000/svg">
<g id="front">
<g id="crus">
<path id="Vector 22" d="M16.75 89L16.626 88.504C16.5423 88.1693 16.5 87.8255 16.5 87.4804V87.3508C16.5 86.4764 16.7976 85.628 17.3438 84.9452L18.3322 83.7097C18.4383 83.5772 18.5988 83.5 18.7686 83.5C18.9167 83.5 19.0589 83.5589 19.1637 83.6637L19.7185 84.2185C19.9049 84.4049 20.1202 84.5601 20.3561 84.678L20.5327 84.7664C20.8422 84.9211 21.1247 85.1247 21.3694 85.3694L21.4387 85.4387C21.806 85.806 22.0665 86.2662 22.1925 86.7701C22.3884 87.5534 22.2447 88.383 21.7968 89.0548L21.5 89.5L21.1725 90.1551C20.7267 91.0467 20.4167 91.9999 20.2528 92.9832L20 94.5L19.6361 96.6836C19.5455 97.2269 19.5 97.7768 19.5 98.3276V101.51C19.5 102.168 19.435 102.825 19.3058 103.471L19 105L18.7401 106.04C18.7052 106.179 18.5 106.154 18.5 106.01C18.5 106.003 18.4994 105.997 18.4983 105.99L18 103L17.5 99L17.1361 96.8164C17.0455 96.2731 17 95.7232 17 95.1724V92.5V91.0308C17 90.3462 16.916 89.6642 16.75 89Z" stroke="black" stroke-width="0.5"/>
<path id="Vector 23" d="M16 90.4142V88.1343C16 87.9002 16.283 87.783 16.4485 87.9485C16.4822 87.9822 16.5061 88.0244 16.5177 88.0706L16.8462 89.3846C16.9483 89.7933 17 90.213 17 90.6343V93V95.1724C17 95.7232 17.0455 96.2731 17.1361 96.8164L17.5 99L18 103L18.3239 104.943C18.3793 105.276 18.8282 105.344 18.9791 105.042C18.993 105.014 19.0031 104.985 19.0092 104.954L19.3058 103.471C19.435 102.825 19.5 102.168 19.5 101.51V100V98.3276C19.5 97.7768 19.5455 97.2269 19.6361 96.6836L20 94.5L20.5 92L20.7753 91.1742C20.9249 90.7253 21.1062 90.2876 21.3178 89.8644L21.5 89.5L22.2226 88.416C22.3057 88.2914 22.5 88.3502 22.5 88.5V89.5V91.5V94.5742C22.5 95.8464 22.2572 97.1069 21.7848 98.2881L21.5 99L19.6388 105.514C19.5467 105.836 19.5 106.17 19.5 106.505V107.403C19.5 107.785 19.652 108.152 19.9225 108.422C20.2808 108.781 20.4248 109.301 20.3019 109.792L20.0893 110.643C20.03 110.88 20 111.124 20 111.368V113.293C20 113.746 19.8201 114.18 19.5 114.5C19.1799 114.82 18.7456 115 18.2929 115H17H15H14.9142C14.1332 115 13.5 114.367 13.5 113.586C13.5 113.211 13.649 112.851 13.9142 112.586L14.7803 111.72C14.9266 111.573 15.0623 111.417 15.1864 111.251L15.2636 111.149C16.0662 110.078 16.5 108.777 16.5 107.439V104.5V102.211C16.5 101.737 16.4664 101.265 16.3995 100.796L16 98L15.6661 95.3288C15.5559 94.4469 15.5637 93.5542 15.6894 92.6743L15.9879 90.5849C15.9959 90.5284 16 90.4713 16 90.4142Z" stroke="black" stroke-width="0.5"/>
<path id="Vector 33" d="M39.5 90.4142V88.1343C39.5 87.9002 39.217 87.783 39.0515 87.9485C39.0178 87.9822 38.9939 88.0244 38.9823 88.0706L38.6538 89.3846C38.5517 89.7933 38.5 90.213 38.5 90.6343V93V95.1724C38.5 95.7232 38.4545 96.2731 38.3639 96.8164L38 99L37.5 103L37.1761 104.943C37.1207 105.276 36.6718 105.344 36.5209 105.042C36.507 105.014 36.4969 104.985 36.4908 104.954L36.1942 103.471C36.065 102.825 36 102.168 36 101.51V100V98.3276C36 97.7768 35.9545 97.2269 35.8639 96.6836L35.5 94.5L35 92L34.7247 91.1742C34.5751 90.7253 34.3938 90.2876 34.1822 89.8644L34 89.5L33.2774 88.416C33.1943 88.2914 33 88.3502 33 88.5V89.5V91.5V94.5742C33 95.8464 33.2428 97.1069 33.7152 98.2881L34 99L35.8612 105.514C35.9533 105.836 36 106.17 36 106.505V107.403C36 107.785 35.848 108.152 35.5775 108.422C35.2192 108.781 35.0752 109.301 35.1981 109.792L35.4107 110.643C35.47 110.88 35.5 111.124 35.5 111.368V113.293C35.5 113.746 35.6799 114.18 36 114.5C36.3201 114.82 36.7544 115 37.2071 115H38.5H40.5H40.5858C41.3668 115 42 114.367 42 113.586C42 113.211 41.851 112.851 41.5858 112.586L40.7197 111.72C40.5734 111.573 40.4377 111.417 40.3136 111.251L40.2364 111.149C39.4338 110.078 39 108.777 39 107.439V104.5V102.211C39 101.737 39.0336 101.265 39.1005 100.796L39.5 98L39.8339 95.3288C39.9441 94.4469 39.9363 93.5542 39.8106 92.6743L39.5121 90.5849C39.5041 90.5284 39.5 90.4713 39.5 90.4142Z" stroke="black" stroke-width="0.5"/>
<path id="Vector 32" d="M38.75 89L38.874 88.504C38.9577 88.1693 39 87.8255 39 87.4804V87.3508C39 86.4764 38.7024 85.628 38.1562 84.9452L37.1678 83.7097C37.0617 83.5772 36.9012 83.5 36.7314 83.5C36.5833 83.5 36.4411 83.5589 36.3363 83.6637L35.7815 84.2185C35.5951 84.4049 35.3798 84.5601 35.1439 84.678L34.9673 84.7664C34.6578 84.9211 34.3753 85.1247 34.1306 85.3694L34.0613 85.4387C33.694 85.806 33.4335 86.2662 33.3075 86.7701C33.1116 87.5534 33.2553 88.383 33.7032 89.0548L34 89.5L34.3275 90.1551C34.7733 91.0467 35.0833 91.9999 35.2472 92.9832L35.5 94.5L35.8639 96.6836C35.9545 97.2269 36 97.7768 36 98.3276V101.51C36 102.168 36.065 102.825 36.1942 103.471L36.5 105L36.7599 106.04C36.7948 106.179 37 106.154 37 106.01C37 106.003 37.0006 105.997 37.0017 105.99L37.5 103L38 99L38.3639 96.8164C38.4545 96.2731 38.5 95.7232 38.5 95.1724V92.5V91.0308C38.5 90.3462 38.584 89.6642 38.75 89Z" stroke="black" stroke-width="0.5"/>
</g>
<g id="knee">
<path id="Vector 19" d="M20 78.9004V78C20 77.7239 19.7761 77.5 19.5 77.5C19.1799 77.5 18.8728 77.3728 18.6464 77.1464L18.5 77L18.0525 76.5525C18.0183 76.5183 17.9949 76.4747 17.9854 76.4272L17.5981 74.4903C17.5863 74.4317 17.5 74.4402 17.5 74.5V79C17.5 79.9935 17.3398 80.9805 17.0257 81.923L17 82L16.1545 84.5364C16.0522 84.8435 16 85.165 16 85.4887V88.25C16 88.3881 16.1119 88.5 16.25 88.5C16.3881 88.5 16.5 88.3881 16.5 88.25V86.581C16.5 86.2022 16.6121 85.8318 16.8223 85.5166L17.2536 84.8697C17.4175 84.6238 17.6052 84.3948 17.8142 84.1858L17.879 84.121C18.2903 83.7097 18.6326 83.2347 18.8928 82.7144L19.2846 81.9307C19.428 81.6439 19.5509 81.3473 19.6523 81.0432C19.8826 80.3522 20 79.6287 20 78.9004Z" stroke="black" stroke-width="0.5"/>
<path id="Vector 20" d="M20.2094 84.7094L19.6104 84.1104C19.5373 84.0373 19.4529 83.9764 19.3604 83.9302C18.8852 83.6926 18.6926 83.1148 18.9302 82.6396L19 82.5L19.2846 81.9307C19.428 81.6439 19.5509 81.3473 19.6523 81.0432L19.8419 80.4743C19.9466 80.1602 20 79.8312 20 79.5V78.8536C20 78.6583 20.1583 78.5 20.3536 78.5C20.4473 78.5 20.5372 78.5372 20.6036 78.6036L20.9035 78.9035C20.9677 78.9677 21.0253 79.038 21.0757 79.1135L21.9033 80.355C21.9637 80.4456 22.0654 80.5 22.1743 80.5C22.3542 80.5 22.5 80.6458 22.5 80.8257V82.118C22.5 82.3692 22.4415 82.617 22.3292 82.8416L21.5 84.5C21.254 84.992 20.5984 85.0984 20.2094 84.7094Z" stroke="black" stroke-width="0.5"/>
<path id="Vector 30" d="M35.2906 84.7094L35.8896 84.1104C35.9627 84.0373 36.0471 83.9764 36.1396 83.9302C36.6148 83.6926 36.8074 83.1148 36.5698 82.6396L36.5 82.5L36.2154 81.9307C36.072 81.6439 35.9491 81.3473 35.8477 81.0432L35.6581 80.4743C35.5534 80.1602 35.5 79.8312 35.5 79.5V78.8536C35.5 78.6583 35.3417 78.5 35.1464 78.5C35.0527 78.5 34.9628 78.5372 34.8964 78.6036L34.5965 78.9035C34.5323 78.9677 34.4747 79.038 34.4243 79.1135L33.5967 80.355C33.5363 80.4456 33.4346 80.5 33.3257 80.5C33.1458 80.5 33 80.6458 33 80.8257V82.118C33 82.3692 33.0585 82.617 33.1708 82.8416L34 84.5C34.246 84.992 34.9016 85.0984 35.2906 84.7094Z" stroke="black" stroke-width="0.5"/>
<path id="Vector 29" d="M35.5 78.9004V78C35.5 77.7239 35.7239 77.5 36 77.5C36.3201 77.5 36.6272 77.3728 36.8536 77.1464L37 77L37.4475 76.5525C37.4817 76.5183 37.5051 76.4747 37.5146 76.4272L37.9019 74.4903C37.9137 74.4317 38 74.4402 38 74.5V79C38 79.9935 38.1602 80.9805 38.4743 81.923L38.5 82L39.3455 84.5364C39.4478 84.8435 39.5 85.165 39.5 85.4887V88.25C39.5 88.3881 39.3881 88.5 39.25 88.5C39.1119 88.5 39 88.3881 39 88.25V86.581C39 86.2022 38.8879 85.8318 38.6777 85.5166L38.2464 84.8697C38.0825 84.6238 37.8948 84.3948 37.6858 84.1858L37.621 84.121C37.2097 83.7097 36.8674 83.2347 36.6072 82.7144L36.2154 81.9307C36.072 81.6439 35.9491 81.3473 35.8477 81.0432C35.6174 80.3522 35.5 79.6287 35.5 78.9004Z" stroke="black" stroke-width="0.5"/>
<path id="Vector 31" d="M32 82.5L31.5287 81.086C31.5097 81.029 31.5 80.9694 31.5 80.9094C31.5 80.5642 31.8099 80.3017 32.1504 80.3584L32.3733 80.3955C32.7349 80.4558 33 80.7687 33 81.1353V81.5C33 82.1576 33.1531 82.8062 33.4472 83.3944L33.5 83.5L33.9136 84.1205C34.2546 84.6319 34.1872 85.3128 33.7525 85.7475C33.5873 85.9127 33.4701 86.1198 33.4134 86.3465L33.0532 87.7873C33.0219 87.9123 32.9096 88 32.7808 88C32.6257 88 32.5 87.8743 32.5 87.7192V87V85.5811C32.5 84.5339 32.3312 83.4935 32 82.5Z" stroke="black" stroke-width="0.5"/>
<path id="Vector 21" d="M23.5 82.5L23.9713 81.086C23.9903 81.029 24 80.9694 24 80.9094C24 80.5642 23.6901 80.3017 23.3496 80.3584L23.1267 80.3955C22.7651 80.4558 22.5 80.7687 22.5 81.1353V81.5C22.5 82.1576 22.3469 82.8062 22.0528 83.3944L22 83.5L21.5864 84.1205C21.2454 84.6319 21.3128 85.3128 21.7475 85.7475C21.9127 85.9127 22.0299 86.1198 22.0866 86.3465L22.4468 87.7873C22.4781 87.9123 22.5904 88 22.7192 88C22.8743 88 23 87.8743 23 87.7192V87V85.5811C23 84.5339 23.1688 83.4935 23.5 82.5Z" stroke="black" stroke-width="0.5"/>
</g>
<g id="vastus_medialis">
<path id="Vector 18" d="M22.5 73L22.3567 72.4267C22.3049 72.2196 22 72.2571 22 72.4706C22 72.4901 21.9969 72.5094 21.9907 72.5279L21.5 74L20.5315 77.874C20.5106 77.9577 20.5 78.0436 20.5 78.1299C20.5 78.3695 20.5815 78.6019 20.7312 78.789L21.7889 80.1111C22.1912 80.614 22.9113 80.7258 23.4471 80.3686L23.531 80.3127C23.824 80.1173 24 79.7885 24 79.4363V79.4085C24 79.1469 23.8961 78.8961 23.7111 78.7111C23.5735 78.5735 23.4796 78.3981 23.4414 78.2072L23 76L22.5 73Z" stroke="black" stroke-width="0.5"/>
<path id="Vector 28" d="M33 73L33.1433 72.4267C33.1951 72.2196 33.5 72.2571 33.5 72.4706C33.5 72.4901 33.5031 72.5094 33.5093 72.5279L34 74L34.9685 77.874C34.9894 77.9577 35 78.0436 35 78.1299C35 78.3695 34.9185 78.6019 34.7688 78.789L33.7111 80.1111C33.3088 80.614 32.5887 80.7258 32.0529 80.3686L31.969 80.3127C31.676 80.1173 31.5 79.7885 31.5 79.4363V79.4085C31.5 79.1469 31.6039 78.8961 31.7889 78.7111C31.9265 78.5735 32.0204 78.3981 32.0586 78.2072L32.5 76L33 73Z" stroke="black" stroke-width="0.5"/>
</g>
<g id="adductor_magnus">
<path id="Vector 17" d="M26.5 63V59.2071C26.5 58.7544 26.3201 58.3201 26 58L24.5 56.5L22 54.5L20.5 53.5L19.416 52.7774C19.2382 52.6588 19 52.7863 19 53V53.5V57.2094C19 57.7331 19.0844 58.2532 19.25 58.75C19.4156 59.2468 19.5 59.7669 19.5 60.2906V60.9692C19.5 61.6538 19.584 62.3358 19.75 63L19.8787 63.5149C19.9593 63.8371 20 64.1679 20 64.5C20 64.8321 20.0407 65.1629 20.1213 65.4851L20.2643 66.0573C20.421 66.6839 20.6457 67.2915 20.9346 67.8692L21.0091 68.0182C21.3354 68.6708 21.5893 69.3571 21.7662 70.0649L22.5 73L23 76.5L23.4498 78.7489C23.479 78.8949 23.6072 79 23.7561 79C23.8994 79 24.0244 78.9024 24.0592 78.7634L24.5 77L25.5 72.5L26 69.5L26.3058 67.971C26.435 67.3252 26.5 66.6683 26.5 66.0098V63Z" stroke="black" stroke-width="0.5"/>
<path id="Vector 27" d="M29 63V59.2071C29 58.7544 29.1799 58.3201 29.5 58L31 56.5L33.5 54.5L35 53.5L36.084 52.7774C36.2618 52.6588 36.5 52.7863 36.5 53V53.5V57.2094C36.5 57.7331 36.4156 58.2532 36.25 58.75C36.0844 59.2468 36 59.7669 36 60.2906V60.9692C36 61.6538 35.916 62.3358 35.75 63L35.6213 63.5149C35.5407 63.8371 35.5 64.1679 35.5 64.5C35.5 64.8321 35.4593 65.1629 35.3787 65.4851L35.2357 66.0573C35.079 66.6839 34.8543 67.2915 34.5654 67.8692L34.4909 68.0182C34.1646 68.6708 33.9107 69.3571 33.7338 70.0649L33 73L32.5 76.5L32.0502 78.7489C32.021 78.8949 31.8928 79 31.7439 79C31.6006 79 31.4756 78.9024 31.4408 78.7634L31 77L30 72.5L29.5 69.5L29.1942 67.971C29.065 67.3252 29 66.6683 29 66.0098V63Z" stroke="black" stroke-width="0.5"/>
</g>
<g id="rectus_femoris">
<path id="Vector 16" d="M19.4925 59.4701L19.1213 57.9851C19.1037 57.9147 19 57.9274 19 58C19 58.3201 18.8728 58.6272 18.6464 58.8536L18.6407 58.8593C18.5475 58.9525 18.4699 59.0601 18.411 59.178L18 60C17.6712 60.6576 17.5 61.3828 17.5 62.118V65V65.7689C17.5 66.5866 17.6003 67.4011 17.7986 68.1943L18 69L18.5 72.5L19.5 76L19.9558 77.3675C19.9851 77.4553 20 77.5471 20 77.6396V78.25C20 78.3881 20.1119 78.5 20.25 78.5C20.3881 78.5 20.5 78.3881 20.5 78.25V78.0548C20.5 78.0184 20.5045 77.9821 20.5133 77.9468L21 76L21.5 74L21.7303 73.3092C21.9089 72.7732 22 72.212 22 71.6471C22 71.2173 21.9473 70.7892 21.8431 70.3723L21.7357 69.9427C21.579 69.3161 21.3543 68.7085 21.0654 68.1308L20.7154 67.4307C20.572 67.1439 20.4491 66.8473 20.3477 66.5432L20.2372 66.2115C20.0801 65.7403 20 65.2468 20 64.75C20 64.2532 19.9199 63.7597 19.7628 63.2885L19.75 63.25C19.5844 62.7532 19.5 62.2331 19.5 61.7094V61V59.5308C19.5 59.5103 19.4975 59.49 19.4925 59.4701Z" stroke="black" stroke-width="0.5"/>
<path id="Vector 26" d="M36.0075 59.4701L36.3787 57.9851C36.3963 57.9147 36.5 57.9274 36.5 58C36.5 58.3201 36.6272 58.6272 36.8536 58.8536L36.8593 58.8593C36.9525 58.9525 37.0301 59.0601 37.089 59.178L37.5 60C37.8288 60.6576 38 61.3828 38 62.118V65V65.7689C38 66.5866 37.8997 67.4011 37.7014 68.1943L37.5 69L37 72.5L36 76L35.5442 77.3675C35.5149 77.4553 35.5 77.5471 35.5 77.6396V78.25C35.5 78.3881 35.3881 78.5 35.25 78.5C35.1119 78.5 35 78.3881 35 78.25V78.0548C35 78.0184 34.9955 77.9821 34.9867 77.9468L34.5 76L34 74L33.7697 73.3092C33.5911 72.7732 33.5 72.212 33.5 71.6471C33.5 71.2173 33.5527 70.7892 33.6569 70.3723L33.7643 69.9427C33.921 69.3161 34.1457 68.7085 34.4346 68.1308L34.7846 67.4307C34.928 67.1439 35.0509 66.8473 35.1523 66.5432L35.2628 66.2115C35.4199 65.7403 35.5 65.2468 35.5 64.75C35.5 64.2532 35.5801 63.7597 35.7372 63.2885L35.75 63.25C35.9156 62.7532 36 62.2331 36 61.7094V61V59.5308C36 59.5103 36.0025 59.49 36.0075 59.4701Z" stroke="black" stroke-width="0.5"/>
</g>
<g id="vastus_lateralis">
<path id="Vector 15" d="M16.5 64V62.3536C16.5 62.1583 16.6583 62 16.8536 62H16.8964C16.9628 62 17.0263 61.9737 17.0732 61.9268C17.2307 61.7693 17.5 61.8808 17.5 62.1036V63.5V66.4836C17.5 67.1568 17.6085 67.8256 17.8214 68.4642C17.9402 68.8207 18.0267 69.1871 18.0799 69.5591L18.5 72.5L19.5 76L19.8419 77.0257C19.9197 77.259 19.746 77.5 19.5 77.5C19.1799 77.5 18.8728 77.3728 18.6464 77.1464L18.4223 76.9223C18.1469 76.6469 17.9592 76.2962 17.8829 75.9144L17.5 74L17.07 69.27C17.0234 68.7574 16.9373 68.2492 16.8125 67.75L16.7986 67.6943C16.6003 66.9011 16.5 66.0866 16.5 65.2689V64Z" stroke="black" stroke-width="0.5"/>
<path id="Vector 25" d="M39 64V62.3536C39 62.1583 38.8417 62 38.6464 62H38.6036C38.5372 62 38.4737 61.9737 38.4268 61.9268C38.2693 61.7693 38 61.8808 38 62.1036V63.5V66.4836C38 67.1568 37.8915 67.8256 37.6786 68.4642C37.5598 68.8207 37.4733 69.1871 37.4201 69.5591L37 72.5L36 76L35.6581 77.0257C35.5803 77.259 35.754 77.5 36 77.5C36.3201 77.5 36.6272 77.3728 36.8536 77.1464L37.0777 76.9223C37.3531 76.6469 37.5408 76.2962 37.6171 75.9144L38 74L38.43 69.27C38.4766 68.7574 38.5627 68.2492 38.6875 67.75L38.7014 67.6943C38.8997 66.9011 39 66.0866 39 65.2689V64Z" stroke="black" stroke-width="0.5"/>
</g>
<g id="tensor_fasciae_latae">
<path id="Vector 14" d="M16.5257 54.923L17.364 52.4081C17.389 52.333 17.5 52.351 17.5 52.4302C17.5 52.4687 17.5313 52.5 17.5698 52.5H18H18.5C18.7761 52.5 19 52.7239 19 53V56.5V57.5C19 57.8288 18.9234 58.1531 18.7764 58.4472L17.5 61L17 62C16.8754 62.2491 16.5 62.1605 16.5 61.882V55.0811C16.5 55.0274 16.5087 54.974 16.5257 54.923Z" stroke="black" stroke-width="0.5"/>
<path id="Vector 24" d="M38.9743 54.923L38.136 52.4081C38.111 52.333 38 52.351 38 52.4302C38 52.4687 37.9687 52.5 37.9302 52.5H37.5H37C36.7239 52.5 36.5 52.7239 36.5 53V56.5V57.5C36.5 57.8288 36.5766 58.1531 36.7236 58.4472L38 61L38.5 62C38.6246 62.2491 39 62.1605 39 61.882V55.0811C39 55.0274 38.9913 54.974 38.9743 54.923Z" stroke="black" stroke-width="0.5"/>
</g>
<path id="obliquus_externus_abdominis" d="M19 32L18.5916 30.3665C18.5451 30.1804 18.6859 30 18.8778 30C18.956 30 19.0311 30.0311 19.0864 30.0864L20 31L22.5 33.5C22.8201 33.8201 23.2544 34 23.7071 34H24.5H24.8374C25.2732 34 25.7029 33.8986 26.0926 33.7037L26.4117 33.5442C26.4702 33.5149 26.5236 33.4764 26.5698 33.4302L26.6464 33.3536C26.8417 33.1583 27.1583 33.1583 27.3536 33.3536C27.4473 33.4473 27.5745 33.5 27.7071 33.5H27.7929C27.9255 33.5 28.0527 33.4473 28.1464 33.3536C28.3417 33.1583 28.6583 33.1583 28.8536 33.3536L28.9045 33.4045C28.9673 33.4673 29.0439 33.5146 29.1281 33.5427L29.9203 33.8068C30.3043 33.9348 30.7063 34 31.1111 34H31.3374C31.7732 34 32.2029 33.8986 32.5926 33.7037C32.8624 33.5688 33.1087 33.3913 33.3221 33.1779L34 32.5L35 31.5L35.6779 30.8221C35.8913 30.6087 36.1376 30.4312 36.4074 30.2963L36.9431 30.0285C36.9805 30.0097 37.0218 30 37.0637 30C37.2641 30 37.3945 30.211 37.3049 30.3903L36.5543 31.8914C36.5182 31.9636 36.4888 32.0391 36.4666 32.1168L35.5 35.5L35 38.5L34.7494 39.5025C34.5838 40.165 34.5 40.8453 34.5 41.5282C34.5 42.8249 34.8019 44.1038 35.3818 45.2636L35.5 45.5L37 49L37.9779 51.9338C37.9925 51.9776 38 52.0236 38 52.0698C38 52.3074 37.8074 52.5 37.5698 52.5H36.8486C36.6213 52.5 36.3991 52.5673 36.2099 52.6934L35 53.5L33.5 54.5L31 56.5L29 58.5C28.6799 58.8201 28.2456 59 27.7929 59H27.7071C27.2544 59 26.8201 58.8201 26.5 58.5L24.5 56.5L22 54.5L20.5 53.5L19.2901 52.6934C19.1009 52.5673 18.8787 52.5 18.6514 52.5H17.9302C17.6926 52.5 17.5 52.3074 17.5 52.0698C17.5 52.0236 17.5075 51.9776 17.5221 51.9338L18.5 49L20 45.5L20.1182 45.2636C20.6981 44.1038 21 42.8249 21 41.5282C21 40.8453 20.9162 40.165 20.7506 39.5025L20.5 38.5L20 35.5L19 32Z" stroke="black" stroke-width="0.5"/>
<path id="rectus_abdominis" d="M22.5 38.5V37V35.7906C22.5 35.5981 22.531 35.4069 22.5919 35.2243L22.6838 34.9487C22.8726 34.3821 23.4028 34 24 34V34H24.8374C25.2732 34 25.7029 33.8986 26.0926 33.7037L26.4117 33.5442C26.4702 33.5149 26.5236 33.4764 26.5698 33.4302L26.6464 33.3536C26.8417 33.1583 27.1583 33.1583 27.3536 33.3536V33.3536C27.4473 33.4473 27.5745 33.5 27.7071 33.5H27.75M22.5 38.5V41V43M22.5 38.5V38.5C22.8288 38.5 23.1531 38.5766 23.4472 38.7236L23.5528 38.7764C23.8469 38.9234 24.1712 39 24.5 39V39H25L27.75 38.6579M22.5 45.5V44V43M22.5 45.5L23 48L23.371 50.2261C23.4569 50.7412 23.583 51.2489 23.7481 51.7443L24.2753 53.3258C24.4249 53.7747 24.6062 54.2124 24.8178 54.6356L25.5 56L26.3487 57.273C26.4493 57.424 26.5646 57.5646 26.6929 57.6929L27.3232 58.3232C27.4364 58.4364 27.5899 58.5 27.75 58.5V58.5M22.5 45.5L23.3374 46.3374C23.7732 46.7732 24.3043 47.1014 24.8889 47.2963V47.2963C25.2937 47.4312 25.7175 47.5 26.1441 47.5H27.75M33 45.5L32.5 48L32.129 50.2261C32.0431 50.7412 31.917 51.2489 31.7519 51.7444L31.2247 53.3258C31.0751 53.7747 30.8938 54.2124 30.6822 54.6356L30 56L29.1513 57.273C29.0507 57.424 28.9354 57.5646 28.8071 57.6929L28.1768 58.3232C28.0636 58.4364 27.9101 58.5 27.75 58.5V58.5M33 45.5V44V43M33 45.5L32.1626 46.3374C31.7268 46.7732 31.1957 47.1014 30.6111 47.2963V47.2963C30.2063 47.4312 29.7825 47.5 29.3559 47.5H27.75M33 38.5V41V43M33 38.5V37V35.7906C33 35.5981 32.969 35.4069 32.9081 35.2243L32.8162 34.9487C32.6274 34.3821 32.0972 34 31.5 34V34H31.1441C30.7175 34 30.2937 33.9312 29.8889 33.7963L29.1281 33.5427C29.0439 33.5146 28.9673 33.4673 28.9045 33.4045L28.8536 33.3536C28.6583 33.1583 28.3417 33.1583 28.1464 33.3536V33.3536C28.0527 33.4473 27.9255 33.5 27.7929 33.5H27.75M33 38.5V38.5C32.6712 38.5 32.3469 38.5766 32.0528 38.7236L31.9472 38.7764C31.6531 38.9234 31.3288 39 31 39V39H30.5L27.75 38.6579M27.75 33.5V38.6579M27.75 58.5V47.5M27.75 38.6579V43.1306M22.5 43H23.5L27.75 43.1306M27.75 43.1306L32 43H33M27.75 43.1306V47.5" stroke="black" stroke-width="0.5"/>
<g id="forearms">
<path id="Vector 8" d="M44 39.5L43.2644 38.3965C43.1852 38.2778 43 38.3338 43 38.4766C43 38.4921 42.9975 38.5075 42.9926 38.5222L42.5552 39.8345C42.5189 39.9433 42.4578 40.0422 42.3766 40.1234C42.1517 40.3483 41.8081 40.404 41.5236 40.2618L41.1838 40.0919C41.0621 40.031 40.9509 39.9509 40.8547 39.8547L40 39C39.8155 38.8155 39.5 38.9462 39.5 39.2071V41.3544C39.5 41.4511 39.5119 41.5474 39.5353 41.6412L39.7643 42.5573C39.921 43.1839 40.1457 43.7915 40.4346 44.3692L41 45.5L43.5 50.5L46.1981 55.4464C46.3489 55.723 46.7231 55.7769 46.9459 55.5541C46.9817 55.5183 47.0231 55.4884 47.0685 55.4658L47.855 55.0725C47.9503 55.0248 48.0555 55 48.1621 55C48.5956 55 48.9207 54.6035 48.8357 54.1784L48.5495 52.7473C48.5166 52.5832 48.4621 52.4241 48.3872 52.2744L47.9346 51.3692C47.6457 50.7915 47.421 50.1839 47.2643 49.5573L47.1569 49.1277C47.0527 48.7108 47 48.2827 47 47.8529C47 47.288 46.9089 46.7268 46.7303 46.1908L46.5 45.5L45.5 43L45.2247 42.1742C45.0751 41.7253 44.8938 41.2876 44.6822 40.8644L44 39.5Z" stroke="black" stroke-width="0.5"/>
<path id="Vector 9" d="M11.5 39.5L12.2356 38.3965C12.3148 38.2778 12.5 38.3338 12.5 38.4766C12.5 38.4921 12.5025 38.5075 12.5074 38.5222L12.9448 39.8345C12.9811 39.9433 13.0422 40.0422 13.1234 40.1234C13.3483 40.3483 13.6919 40.404 13.9764 40.2618L14.3162 40.0919C14.4379 40.031 14.5491 39.9509 14.6453 39.8547L15.5 39C15.6845 38.8155 16 38.9462 16 39.2071V41.3544C16 41.4511 15.9881 41.5474 15.9647 41.6412L15.7357 42.5573C15.579 43.1839 15.3543 43.7915 15.0654 44.3692L14.5 45.5L12 50.5L9.30194 55.4464C9.15111 55.723 8.77686 55.7769 8.55414 55.5541C8.51828 55.5183 8.47688 55.4884 8.43152 55.4658L7.64503 55.0725C7.54965 55.0248 7.44448 55 7.33785 55C6.9044 55 6.57931 54.6035 6.66432 54.1784L6.95054 52.7473C6.98337 52.5832 7.03793 52.4241 7.11279 52.2744L7.56542 51.3692C7.85427 50.7915 8.07903 50.1839 8.23569 49.5573L8.34307 49.1277C8.4473 48.7108 8.5 48.2827 8.5 47.8529C8.5 47.288 8.59108 46.7268 8.76973 46.1908L9 45.5L10 43L10.2753 42.1742C10.4249 41.7253 10.6062 41.2876 10.8178 40.8644L11.5 39.5Z" stroke="black" stroke-width="0.5"/>
</g>
<g id="biceps">
<path id="Vector 6" d="M12.8477 32.4568L12.9254 32.2239C12.9751 32.0748 13.0353 31.9295 13.1056 31.7889C13.364 31.2719 13.753 30.8314 14.2339 30.5108L15.5697 29.6202C16.145 29.2367 16.8816 29.1908 17.5 29.5C18.1129 29.8064 18.5 30.4328 18.5 31.118V32V32.6435C18.5 33.2124 18.4302 33.779 18.2923 34.3309C18.0989 35.1045 17.7739 35.8392 17.3315 36.5027L17 37L16.3922 37.9117C16.1314 38.3029 15.8325 38.6675 15.5 39L15.1374 39.3626C15.046 39.454 14.9459 39.5361 14.8383 39.6078L13.9398 40.2068C13.6841 40.3773 13.3436 40.3436 13.1263 40.1263C13.0436 40.0436 12.985 39.9401 12.9567 39.8268L12.6538 38.6154C12.5517 38.2067 12.5 37.787 12.5 37.3657V35.5V34.5996C12.5 33.8713 12.6174 33.1478 12.8477 32.4568Z" stroke="black" stroke-width="0.5"/>
<path id="Vector 7" d="M42.6523 32.4568L42.5746 32.2239C42.5249 32.0748 42.4647 31.9295 42.3944 31.7889C42.136 31.2719 41.747 30.8314 41.2661 30.5108L39.9303 29.6202C39.355 29.2367 38.6184 29.1908 38 29.5C37.3871 29.8064 37 30.4328 37 31.118V32V32.6435C37 33.2124 37.0698 33.779 37.2077 34.3309C37.4011 35.1045 37.7261 35.8392 38.1685 36.5027L38.5 37L39.1078 37.9117C39.3686 38.3029 39.6675 38.6675 40 39L40.3626 39.3626C40.454 39.454 40.5541 39.5361 40.6617 39.6078L41.5602 40.2068C41.8159 40.3773 42.1564 40.3436 42.3737 40.1263C42.4564 40.0436 42.515 39.9401 42.5433 39.8268L42.8462 38.6154C42.9483 38.2067 43 37.787 43 37.3657V35.5V34.5996C43 33.8713 42.8826 33.1478 42.6523 32.4568Z" stroke="black" stroke-width="0.5"/>
</g>
<g id="pectoralis major">
<path d="M17.4513 29.4756L17.0903 29.2952C16.7999 29.15 16.7371 28.7629 16.9667 28.5333C16.9888 28.5112 17.0088 28.4869 17.0261 28.4608L18 27L19.3136 25.2485C19.4377 25.0831 19.5734 24.9266 19.7197 24.7803L20.1823 24.3177C20.7059 23.7941 21.4159 23.5 22.1563 23.5C22.3846 23.5 22.612 23.528 22.8334 23.5834L24.1828 23.9207C24.3936 23.9734 24.5981 24.049 24.7925 24.1462C25.2561 24.3781 25.6512 24.7269 25.9388 25.1582L26.1648 25.4972C26.3873 25.8309 26.5643 26.1928 26.6911 26.5733L26.8419 27.0257C26.9466 27.3398 27 27.6688 27 28V29.5V32V32.691C27 33.1868 26.7199 33.6401 26.2764 33.8618C26.0946 33.9527 25.8942 34 25.691 34H25H24H23.7071C23.2544 34 22.8201 33.8201 22.5 33.5L22 33L21 32L20 31L19.8593 30.8593C19.2942 30.2942 18.6053 29.8684 17.8471 29.6157L17.5517 29.5172C17.5173 29.5058 17.4837 29.4919 17.4513 29.4756Z" stroke="black" stroke-width="0.5"/>
<path d="M37.5429 29.819L38.3719 29.5427C38.4561 29.5146 38.5327 29.4673 38.5955 29.4045C38.8189 29.1811 38.8189 28.8189 38.5955 28.5955L38.0901 28.0901C38.0302 28.0302 37.9763 27.9645 37.9293 27.894L37 26.5C36.6688 25.8377 36.2331 25.2331 35.7094 24.7094L35.5 24.5L34.8536 23.8536C34.6272 23.6272 34.3201 23.5 34 23.5C33.3377 23.5 32.6797 23.6068 32.0513 23.8162L31.5 24L31.2301 24.09C30.4329 24.3557 29.7469 24.8796 29.2807 25.5789C29.0944 25.8584 28.9462 26.1615 28.84 26.4801L28.6581 27.0257C28.5534 27.3398 28.5 27.6688 28.5 28V29.5V32V32.2094C28.5 32.9801 28.9932 33.6644 29.7243 33.9081C29.9069 33.969 30.0981 34 30.2906 34H31C31.9604 34 32.8815 33.6185 33.5607 32.9393L34 32.5L34.5 32L34.9581 31.5419C35.3185 31.1815 35.7136 30.8576 36.1376 30.5749L36.5238 30.3175C36.8399 30.1068 37.1826 29.9391 37.5429 29.819Z" stroke="black" stroke-width="0.5"/>
</g>
<path id="head" d="M24.5 15V17C24.5 17.2761 24.2761 17.5 24 17.5V17.5H23H22V17.5C21.4477 17.5 21 17.0523 21 16.5V16.2865C21 16.0981 21.0439 15.9123 21.1281 15.7438L21.25 15.5C21.4144 15.1712 21.5 14.8086 21.5 14.441V12.5V11.9902C21.5 11.3317 21.565 10.6748 21.6942 10.029L22.5 6L22.7971 4.81171C22.9314 4.27457 23.157 3.76451 23.4641 3.30383V3.30383C23.8179 2.7732 24.2732 2.31787 24.8038 1.96411L25.5 1.5L25.9531 1.27346C26.2974 1.10131 26.7026 1.10131 27.0469 1.27346V1.27346C27.337 1.41851 27.6729 1.44238 27.9806 1.33981L28.8068 1.06441C28.9348 1.02175 29.0688 1 29.2037 1V1C29.3986 1 29.5907 1.04537 29.765 1.13251L30.0926 1.29631C30.3624 1.43122 30.6087 1.60875 30.8221 1.82206L31.5 2.5L31.5363 2.53633C31.8447 2.84469 32.1218 3.18275 32.3637 3.5456V3.5456C32.7848 4.17716 33.0941 4.87642 33.2782 5.6128L33.5 6.5L33.8058 8.02903C33.935 8.67476 34 9.33168 34 9.9902V10.5V12V13.5V15V15.8344C34 15.9441 34.0177 16.053 34.0524 16.1571V16.1571C34.2726 16.8177 33.7808 17.5 33.0844 17.5H32.5H31.8536C31.6272 17.5 31.4101 17.4101 31.25 17.25V17.25C31.0899 17.0899 31 16.8728 31 16.6464V15M24.5 15L24 14L23.5 13M24.5 15L26 16.5L26.4697 16.9697C26.8092 17.3092 27.2698 17.5 27.75 17.5H27.7929C28.2456 17.5 28.6799 17.3201 29 17V17L29.5 16.5L30.5 15.5L31 15M23.5 13L23.1453 12.6453C23.0491 12.5491 22.969 12.4379 22.9081 12.3162L22.7008 11.9016C22.5809 11.6618 22.6279 11.3721 22.8175 11.1825V11.1825C22.9344 11.0656 23.0928 11 23.2581 11H23.5M23.5 13V11M23.5 11V11C23.5 10.0136 23.7297 9.04066 24.1708 8.15836L24.5 7.5L25 6.5L25.0528 6.39443C25.3269 5.84626 25.8871 5.5 26.5 5.5V5.5H27.5H28.5H29.5V5.5C29.8124 5.5 30.1041 5.65612 30.2774 5.91603L30.7999 6.69978C30.9327 6.89904 31.0384 7.11511 31.1141 7.3423L31.4182 8.25457C31.4727 8.41799 31.5387 8.57732 31.6157 8.73139V8.73139C31.8684 9.23685 32 9.79421 32 10.3593V11M32 11L32.1396 11.0698C32.6148 11.3074 32.8074 11.8852 32.5698 12.3604V12.3604C32.5236 12.4529 32.4627 12.5373 32.3896 12.6104L32 13M32 11V13M32 13L31.7236 13.8292C31.5766 14.2703 31.3288 14.6712 31 15V15" stroke="black" stroke-width="0.5"/>
<path id="trapezius" d="M24.5 15V17.5M24.5 17.5V18.0729C24.5 18.6826 24.3581 19.2839 24.0854 19.8292L24 20C23.6754 20.6491 23.1491 21.1754 22.5 21.5V21.5V21.5C21.8424 21.8288 21.1172 22 20.382 22H20V22C19.7608 22 19.7266 22.3453 19.9612 22.3922L20.4757 22.4951C20.4919 22.4984 20.5083 22.5 20.5248 22.5H21.5H21.9004C22.6287 22.5 23.3522 22.6174 24.0432 22.8477L24.177 22.8923C24.3921 22.964 24.6018 23.0509 24.8046 23.1523L25.4728 23.4864C25.4908 23.4954 25.5073 23.5073 25.5215 23.5215V23.5215C25.6559 23.6559 25.882 23.5279 25.8359 23.3435L25.5 22L25.2372 21.2115C25.0801 20.7403 25 20.2468 25 19.75V19.75C25 19.2532 24.9199 18.7597 24.7628 18.2885L24.5 17.5ZM31 15V17.5M31 17.5L30.5 19L30 21L29.5099 22.9605C29.5033 22.9867 29.5 23.0137 29.5 23.0407V23.0407C29.5 23.2667 29.7213 23.4262 29.9357 23.3548L31 23L31.5513 22.8162C32.1797 22.6068 32.8377 22.5 33.5 22.5V22.5H33.7094C34.2331 22.5 34.7532 22.4156 35.25 22.25V22.25C35.7468 22.0844 36.2669 22 36.7906 22H37H34V22C33.6712 22 33.3469 21.9234 33.0528 21.7764L32.9074 21.7037C32.6376 21.5688 32.3913 21.3913 32.1779 21.1779L31.8221 20.8221C31.6087 20.6087 31.4312 20.3624 31.2963 20.0926V20.0926C31.1014 19.7029 31 19.2732 31 18.8374V17.5Z" stroke="black" stroke-width="0.5"/>
<path id="sternocleidomastoideus" d="M17 22H19M19 22L20 22.5L20.6874 22.9583C21.2173 23.3115 21.8398 23.5 22.4766 23.5V23.5C22.8233 23.5 23.1677 23.5559 23.4966 23.6655L24.2761 23.9254C24.4252 23.9751 24.5705 24.0353 24.7111 24.1056V24.1056C25.2281 24.364 25.6686 24.753 25.9892 25.2339L26.1648 25.4972C26.3873 25.8309 26.5643 26.1928 26.6911 26.5733L26.7261 26.6782C26.9075 27.2225 27 27.7925 27 28.3663V28.5V30.5V33V33C27 33.2761 27.2239 33.5 27.5 33.5V33.5H28V33.5C28.2761 33.5 28.5 33.2761 28.5 33V29.5V27.6441C28.5 27.2175 28.5688 26.7937 28.7037 26.3889L28.7764 26.1708C28.9234 25.7297 29.1712 25.3288 29.5 25V25C29.8288 24.6712 30.2297 24.4234 30.6708 24.2764L31.5 24L32.5257 23.6581C32.8398 23.5534 33.1688 23.5 33.5 23.5V23.5V23.5C33.826 23.5 34.1448 23.4035 34.416 23.2226L35.04 22.8067C35.3453 22.6031 35.6764 22.4412 36.0245 22.3252L36.1782 22.2739C36.7225 22.0925 37.2925 22 37.8663 22H38H35.7906C35.2669 22 34.7468 22.0844 34.25 22.25L33.9743 22.3419C33.6602 22.4466 33.3312 22.5 33 22.5V22.5C32.6688 22.5 32.3398 22.5534 32.0257 22.6581L31 23L30.3493 23.2169C29.9315 23.3562 29.5 23.0452 29.5 22.6047V22.6047C29.5 22.5354 29.5112 22.4665 29.5331 22.4007L30.4868 19.5395C30.8267 18.5198 31 17.452 31 16.3772V15.5V15.5C31 15.3155 30.7769 15.2231 30.6464 15.3536L30 16L29.0303 16.9697C28.6908 17.3092 28.2302 17.5 27.75 17.5V17.5C27.2698 17.5 26.8092 17.3092 26.4697 16.9697L25 15.5V15.5C24.8155 15.3155 24.5 15.4462 24.5 15.7071V17V17.441C24.5 17.8086 24.5856 18.1712 24.75 18.5V18.5C24.9144 18.8288 25 19.1914 25 19.559V20V20.1689C25 20.3882 25.0354 20.6061 25.1047 20.8141L25.8649 23.0946C25.9314 23.2941 25.7829 23.5 25.5727 23.5V23.5C25.5249 23.5 25.4777 23.4889 25.435 23.4675L24.7314 23.1157C24.5773 23.0387 24.418 22.9727 24.2546 22.9182L23.5395 22.6798C23.1822 22.5607 22.808 22.5 22.4314 22.5V22.5C22.1449 22.5 21.8595 22.4649 21.5815 22.3954L20.9701 22.2425C20.3258 22.0815 19.6642 22 19 22V22Z" stroke="black" stroke-width="0.5"/>
<g id="deltoideus">
<path d="M17.2071 22H18H19.2929C19.7456 22 20.1799 22.1799 20.5 22.5L20.8232 22.8232C20.9364 22.9364 21 23.0899 21 23.25C21 23.4101 20.9364 23.5636 20.8232 23.6768L19.7197 24.7803C19.5734 24.9266 19.4377 25.0831 19.3136 25.2485L18 27L17.2973 28.0541C17.0996 28.3506 16.8731 28.6269 16.621 28.879C16.2097 29.2903 15.7347 29.6326 15.2144 29.8928L15 30L13.916 30.7226C13.7382 30.8412 13.5 30.7137 13.5 30.5V30V29V28V27C13.5 26.3424 13.6531 25.6938 13.9472 25.1056L14 25L14.1838 24.6325C14.3932 24.2136 14.6688 23.8312 15 23.5L16 22.5C16.3201 22.1799 16.7544 22 17.2071 22Z" stroke="black" stroke-width="0.5"/>
<path d="M38.2929 22H37.5C36.8424 22 36.1938 22.1531 35.6056 22.4472L35.5 22.5L34.3697 23.2536C34.2589 23.3274 34.3112 23.5 34.4443 23.5C34.48 23.5 34.5142 23.5142 34.5394 23.5394L35.5 24.5L35.7094 24.7094C36.2331 25.2331 36.6688 25.8377 37 26.5C37.3312 27.1623 37.7669 27.7669 38.2906 28.2906L38.4316 28.4316C38.8096 28.8096 39.224 29.1494 39.6689 29.4459L40.5 30L41.584 30.7226C41.7618 30.8412 42 30.7137 42 30.5V29.5V28.5V27.5C42 26.8424 41.8469 26.1938 41.5528 25.6056L41.5 25.5L41 24.5C40.6688 23.8377 40.2331 23.2331 39.7094 22.7094L39.5 22.5C39.1799 22.1799 38.7456 22 38.2929 22Z" stroke="black" stroke-width="0.5"/>
</g>
<g id="hand">
<path id="Vector 10" d="M7.10355 55H7.31849C7.43786 55 7.55558 55.0278 7.66235 55.0812L8.35285 55.4264C8.45031 55.4752 8.53928 55.5393 8.61633 55.6163C8.85603 55.856 8.96007 56.1997 8.89359 56.532L8.57322 58.1339C8.52451 58.3775 8.45359 58.616 8.36135 58.8466L7.5 61L7.01234 62.2191C6.6823 63.0442 6.06095 63.7195 5.26612 64.1169L4.98705 64.2565C4.66675 64.4166 4.31357 64.5 3.95546 64.5H3.51612C3.18566 64.5 2.86872 64.3687 2.63505 64.135C2.2558 63.7558 2.16178 63.1764 2.40164 62.6967L2.45512 62.5898C2.485 62.53 2.5106 62.4682 2.53173 62.4048L2.91819 61.2454C2.97266 61.082 3.03866 60.9227 3.11569 60.7686L3.44306 60.1139C3.48051 60.039 3.5 59.9564 3.5 59.8727C3.5 59.4717 3.07806 59.211 2.71945 59.3903L2.62732 59.4363C2.54359 59.4782 2.45126 59.5 2.35765 59.5H1.5H1.29057C1.13009 59.5 1 59.3699 1 59.2094C1 59.0844 1.08003 58.9733 1.19868 58.9338L2.36537 58.5449C2.45501 58.515 2.54242 58.4788 2.62693 58.4365L2.86754 58.3162C3.28644 58.1068 3.66883 57.8312 4 57.5L4.10472 57.3953C4.36653 57.1335 4.66883 56.9156 5 56.75L5.14394 56.678C5.37977 56.5601 5.59505 56.405 5.78149 56.2185L6.39645 55.6036C6.46275 55.5372 6.5 55.4473 6.5 55.3536V55.1036C6.5 54.8808 6.76929 54.7693 6.92678 54.9268C6.97366 54.9737 7.03725 55 7.10355 55Z" stroke="black" stroke-width="0.5"/>
<path id="Vector 11" d="M48.3964 55H48.1815C48.0621 55 47.9444 55.0278 47.8377 55.0812L47.1472 55.4264C47.0497 55.4752 46.9607 55.5393 46.8837 55.6163C46.644 55.856 46.5399 56.1997 46.6064 56.532L46.9268 58.1339C46.9755 58.3775 47.0464 58.616 47.1387 58.8466L48 61L48.4877 62.2191C48.8177 63.0442 49.439 63.7195 50.2339 64.1169L50.513 64.2565C50.8332 64.4166 51.1864 64.5 51.5445 64.5H51.9839C52.3143 64.5 52.6313 64.3687 52.865 64.135C53.2442 63.7558 53.3382 63.1764 53.0984 62.6967L53.0449 62.5898C53.015 62.53 52.9894 62.4682 52.9683 62.4048L52.5818 61.2454C52.5273 61.082 52.4613 60.9227 52.3843 60.7686L52.0569 60.1139C52.0195 60.039 52 59.9564 52 59.8727C52 59.4717 52.4219 59.211 52.7805 59.3903L52.8727 59.4363C52.9564 59.4782 53.0487 59.5 53.1424 59.5H54H54.2094C54.3699 59.5 54.5 59.3699 54.5 59.2094C54.5 59.0844 54.42 58.9733 54.3013 58.9338L53.1346 58.5449C53.045 58.515 52.9576 58.4788 52.8731 58.4365L52.6325 58.3162C52.2136 58.1068 51.8312 57.8312 51.5 57.5L51.3953 57.3953C51.1335 57.1335 50.8312 56.9156 50.5 56.75L50.3561 56.678C50.1202 56.5601 49.905 56.405 49.7185 56.2185L49.1036 55.6036C49.0372 55.5372 49 55.4473 49 55.3536V55.1036C49 54.8808 48.7307 54.7693 48.5732 54.9268C48.5263 54.9737 48.4628 55 48.3964 55Z" stroke="black" stroke-width="0.5"/>
</g>
</g>
</svg>
