<svg width="69" height="119" viewBox="0 0 69 119" fill="none" xmlns="http://www.w3.org/2000/svg">
<g id="front">
<g id="crus">
<path id="Vector 87" d="M21.8613 84.958L22.3437 84.2345C22.4413 84.088 22.6058 84 22.7819 84C22.9215 84 23.0555 83.9445 23.1543 83.8457L23.8232 83.1768C23.9364 83.0636 24.0899 83 24.25 83C24.4101 83 24.5636 83.0636 24.6768 83.1768L24.8593 83.3593C24.9525 83.4525 25.0301 83.5601 25.089 83.678L25.5 84.5L25.6464 84.7929C25.8728 85.2456 26.2698 85.5899 26.75 85.75L26.8244 85.7748C27.257 85.919 27.7291 85.8854 28.137 85.6815L28.4146 85.5427C28.4708 85.5146 28.5327 85.5 28.5955 85.5C28.8189 85.5 29 85.6811 29 85.9045V87.1852C29 87.3591 28.8591 87.5 28.6852 87.5C28.5709 87.5 28.4656 87.562 28.41 87.6619L26.4949 91.1092C26.1667 91.7 25.9255 92.335 25.7789 92.9948L25.1664 95.751C25.0557 96.2495 24.9865 96.7563 24.9597 97.2662L24.5144 105.726C24.5063 105.88 24.3795 106 24.2257 106C24.0931 106 23.9774 105.91 23.9453 105.781L22.5 100L21.8848 97.8467C21.6295 96.9532 21.5 96.0286 21.5 95.0995V90.5V86.1514C21.5 85.7267 21.6257 85.3114 21.8613 84.958Z" stroke="black" stroke-width="0.5"/>
<path id="Vector 101" d="M47.1387 84.958L46.6563 84.2345C46.5587 84.088 46.3942 84 46.2181 84C46.0785 84 45.9445 83.9445 45.8457 83.8457L45.1768 83.1768C45.0636 83.0636 44.9101 83 44.75 83C44.5899 83 44.4364 83.0636 44.3232 83.1768L44.1407 83.3593C44.0475 83.4525 43.9699 83.5601 43.911 83.678L43.5 84.5L43.3536 84.7929C43.1272 85.2456 42.7302 85.5899 42.25 85.75L42.1756 85.7748C41.743 85.919 41.2709 85.8854 40.863 85.6815L40.5854 85.5427C40.5292 85.5146 40.4673 85.5 40.4045 85.5C40.1811 85.5 40 85.6811 40 85.9045V87.1852C40 87.3591 40.1409 87.5 40.3148 87.5C40.4291 87.5 40.5344 87.562 40.59 87.6619L42.5051 91.1092C42.8333 91.7 43.0745 92.335 43.2211 92.9948L43.8336 95.751C43.9443 96.2495 44.0135 96.7563 44.0403 97.2662L44.4856 105.726C44.4937 105.88 44.6205 106 44.7743 106C44.9069 106 45.0226 105.91 45.0547 105.781L46.5 100L47.1152 97.8467C47.3705 96.9532 47.5 96.0286 47.5 95.0995V90.5V86.1514C47.5 85.7267 47.3743 85.3114 47.1387 84.958Z" stroke="black" stroke-width="0.5"/>
<path id="Vector 102" d="M48.8639 93.1836L48.5 91L47.7196 87.8784L47.6098 87.4392L47.5549 87.2196C47.5469 87.1877 47.5 87.1935 47.5 87.2264V93V95.2062C47.5 96.0652 47.3893 96.9205 47.1707 97.7512L45.0554 105.79C45.0228 105.914 44.9106 106 44.7823 106C44.6264 106 44.5 105.874 44.5 105.718V105L44.0471 97.2999C44.0157 96.7675 43.9419 96.2384 43.8262 95.7178L43.2211 92.9948C43.0745 92.335 42.8333 91.7 42.5051 91.1092L40.5899 87.6619C40.5344 87.562 40.4291 87.5 40.3148 87.5C40.1409 87.5 40 87.6409 40 87.8148V89.2808C40 89.4264 40.0179 89.5714 40.0532 89.7127L40.25 90.5C40.416 91.1642 40.5 91.8462 40.5 92.5308V92.6886C40.5 93.8858 40.7226 95.0725 41.1565 96.1882L43.32 101.752C43.7694 102.907 44 104.136 44 105.376V107.882C44 108.617 43.8288 109.342 43.5 110L43.2939 110.412C43.1006 110.799 43 111.225 43 111.657C43 112.207 43.1627 112.744 43.4675 113.201L43.5 113.25C43.826 113.739 44 114.314 44 114.901V115.107C44 115.691 44.1587 116.265 44.4593 116.765C45.0956 117.826 46.2828 118.429 47.5145 118.317L49.7878 118.11C50.4744 118.048 51 117.472 51 116.783C51 116.596 50.9609 116.412 50.8851 116.242L49 112L48.5557 111.111C47.8615 109.723 47.5 108.192 47.5 106.639V106.139C47.5 105.382 47.5859 104.628 47.7561 103.89L48.7439 99.6097C48.9141 98.8723 49 98.1179 49 97.3611V94.8276C49 94.2768 48.9545 93.7269 48.8639 93.1836Z" stroke="black" stroke-width="0.5"/>
<path id="Vector 88" d="M20.1361 93.1836L20.5 91L21.2804 87.8784L21.3902 87.4392L21.4451 87.2196C21.4531 87.1877 21.5 87.1935 21.5 87.2264V93V95.2062C21.5 96.0652 21.6107 96.9205 21.8293 97.7512L23.9446 105.79C23.9772 105.914 24.0894 106 24.2177 106C24.3736 106 24.5 105.874 24.5 105.718V105L24.9529 97.2999C24.9843 96.7675 25.0581 96.2384 25.1738 95.7178L25.7789 92.9948C25.9255 92.335 26.1667 91.7 26.4949 91.1092L28.4101 87.6619C28.4656 87.562 28.5709 87.5 28.6852 87.5C28.8591 87.5 29 87.6409 29 87.8148V89.2808C29 89.4264 28.9821 89.5714 28.9468 89.7127L28.75 90.5C28.584 91.1642 28.5 91.8462 28.5 92.5308V92.6886C28.5 93.8858 28.2774 95.0725 27.8435 96.1882L25.68 101.752C25.2306 102.907 25 104.136 25 105.376V107.882C25 108.617 25.1712 109.342 25.5 110L25.7061 110.412C25.8994 110.799 26 111.225 26 111.657C26 112.207 25.8373 112.744 25.5325 113.201L25.5 113.25C25.174 113.739 25 114.314 25 114.901V115.107C25 115.691 24.8413 116.265 24.5407 116.765C23.9044 117.826 22.7172 118.429 21.4855 118.317L19.2122 118.11C18.5256 118.048 18 117.472 18 116.783C18 116.596 18.0391 116.412 18.1149 116.242L20 112L20.4443 111.111C21.1385 109.723 21.5 108.192 21.5 106.639V106.139C21.5 105.382 21.4141 104.628 21.2439 103.89L20.2561 99.6097C20.0859 98.8723 20 98.1179 20 97.3611V94.8276C20 94.2768 20.0455 93.7269 20.1361 93.1836Z" stroke="black" stroke-width="0.5"/>
</g>
<g id="vastus_lateralis">
<path id="Vector 83" d="M21 69.5742V65V61.9757C21 61.5274 21.4717 61.2359 21.8727 61.4363L21.9146 61.4573C21.9708 61.4854 22.0327 61.5 22.0955 61.5C22.3189 61.5 22.5 61.6811 22.5 61.9045V65.6171C22.5 65.8623 22.5974 66.0974 22.7707 66.2707C22.9191 66.4191 23.0126 66.6136 23.0358 66.8223L23.3447 69.6023C23.4476 70.5283 23.6964 71.4321 24.0819 72.2803L25.4195 75.2229C25.783 76.0225 25.7302 76.9497 25.2782 77.7029L24.6172 78.8047C24.5445 78.9259 24.4136 79 24.2723 79C24.1078 79 23.96 78.8999 23.8989 78.7472L23 76.5L21.7152 73.2881C21.2428 72.1069 21 70.8464 21 69.5742Z" stroke="black" stroke-width="0.5"/>
<path id="Vector 99" d="M48 69.5742V65V61.9757C48 61.5274 47.5283 61.2359 47.1273 61.4363L47.0854 61.4573C47.0292 61.4854 46.9673 61.5 46.9045 61.5C46.6811 61.5 46.5 61.6811 46.5 61.9045V65.6171C46.5 65.8623 46.4026 66.0974 46.2293 66.2707C46.0809 66.4191 45.9874 66.6136 45.9642 66.8223L45.6553 69.6023C45.5524 70.5283 45.3036 71.4321 44.9181 72.2803L43.5805 75.2229C43.217 76.0225 43.2698 76.9497 43.7218 77.7029L44.3828 78.8047C44.4555 78.9259 44.5864 79 44.7277 79C44.8922 79 45.04 78.8999 45.1011 78.7472L46 76.5L47.2848 73.2881C47.7572 72.1069 48 70.8464 48 69.5742Z" stroke="black" stroke-width="0.5"/>
</g>
<g id="adductor_magnus">
<path id="Vector 82" d="M26 55.8772V55V52.5C26 52.1531 26.43 51.9915 26.6585 52.2526L29.5 55.5L30.3581 56.3581C30.449 56.449 30.5722 56.5 30.7006 56.5C30.8841 56.5 31.0518 56.6037 31.1339 56.7678L31.7899 58.0798C31.9263 58.3526 32.1474 58.5737 32.4202 58.7101C32.7882 58.8941 33.0574 59.2297 33.1572 59.6289L33.3556 60.4223C33.451 60.8041 33.475 61.2003 33.4261 61.5908L32.5 69L31.5093 74.9444C31.5031 74.9814 31.494 75.0179 31.4822 75.0534L31.0084 76.4747C30.8838 76.8485 30.3396 76.7969 30.2875 76.4063L29.5 70.5L28 63.5L26.5132 59.0395C26.1733 58.0198 26 56.952 26 55.8772Z" stroke="black" stroke-width="0.5"/>
<path id="Vector 98" d="M43 55.8772V55V52.5C43 52.1531 42.57 51.9915 42.3415 52.2526L39.5 55.5L38.6419 56.3581C38.551 56.449 38.4278 56.5 38.2994 56.5C38.1159 56.5 37.9482 56.6037 37.8661 56.7678L37.2101 58.0798C37.0737 58.3526 36.8526 58.5737 36.5798 58.7101C36.2118 58.8941 35.9426 59.2297 35.8428 59.6289L35.6444 60.4223C35.549 60.8041 35.525 61.2003 35.5739 61.5908L36.5 69L37.4907 74.9444C37.4969 74.9814 37.506 75.0179 37.5178 75.0534L37.9916 76.4747C38.1162 76.8485 38.6604 76.7969 38.7125 76.4063L39.5 70.5L41 63.5L42.4868 59.0395C42.8267 58.0198 43 56.952 43 55.8772Z" stroke="black" stroke-width="0.5"/>
</g>
<g id="rectus_femoris">
<path id="Vector 84" d="M26.9855 78.1425L26 76.5L25.5 75.5L24 72L23.7855 71.3565C23.5956 70.7869 23.4625 70.1999 23.388 69.6042L23.0397 66.8179C23.014 66.6119 22.9203 66.4203 22.7735 66.2735C22.5984 66.0984 22.5 65.8609 22.5 65.6133V63C22.5 62.0219 22.7895 61.0657 23.3321 60.2519L25.4803 57.0296C25.4934 57.0099 25.5084 56.9916 25.5252 56.9748C25.7281 56.7719 26.0754 56.877 26.1317 57.1585L26.5 59L28 63.5L28.5421 65.9394C28.844 67.2982 28.859 68.705 28.586 70.0699L28.5 70.5L27.7986 73.3057C27.6003 74.0989 27.5 74.9134 27.5 75.7311V78C27.5 78.2809 27.13 78.3834 26.9855 78.1425Z" stroke="black" stroke-width="0.5"/>
<path id="Vector 100" d="M42.0145 78.1425L43 76.5L43.5 75.5L45 72L45.2145 71.3565C45.4044 70.7869 45.5375 70.1999 45.612 69.6042L45.9603 66.8179C45.986 66.6119 46.0797 66.4203 46.2265 66.2735C46.4016 66.0984 46.5 65.8609 46.5 65.6133V63C46.5 62.0219 46.2105 61.0657 45.6679 60.2519L43.5197 57.0296C43.5066 57.0099 43.4916 56.9916 43.4748 56.9748C43.2719 56.7719 42.9246 56.877 42.8683 57.1585L42.5 59L41 63.5L40.4579 65.9394C40.156 67.2982 40.141 68.705 40.414 70.0699L40.5 70.5L41.2014 73.3057C41.3997 74.0989 41.5 74.9134 41.5 75.7311V78C41.5 78.2809 41.87 78.3834 42.0145 78.1425Z" stroke="black" stroke-width="0.5"/>
</g>
<g id="forearms">
<path id="Vector 77" d="M11.9913 42.6403L12.8356 41.1627C13.2766 40.391 13.8185 39.6815 14.4469 39.0531L14.7757 38.7243C15.043 38.457 15.5 38.6464 15.5 39.0244V40V40.882C15.5 41.2607 15.714 41.607 16.0528 41.7764C16.3343 41.9172 16.6657 41.9172 16.9472 41.7764L19.5 40.5C19.9594 40.2703 20.5 40.6044 20.5 41.118V41.7454C20.5 41.9128 20.461 42.078 20.3861 42.2278L19.3354 44.3293C18.7832 45.4335 18.0314 46.426 17.1178 47.2565L13.4126 50.6249C13.1388 50.8738 12.9006 51.1591 12.7045 51.4728L11.5289 53.3537C10.9656 54.255 9.769 54.5127 8.88467 53.9231L8.24839 53.4989C7.82084 53.2139 7.67245 52.6551 7.90225 52.1955L9.68218 48.6356C9.89379 48.2124 10.0751 47.7747 10.2247 47.3258L11.1869 44.4394C11.3951 43.8147 11.6646 43.212 11.9913 42.6403Z" stroke="black" stroke-width="0.5"/>
<path id="Vector 97" d="M57.0087 42.6403L56.1644 41.1627C55.7234 40.391 55.1815 39.6815 54.5531 39.0531L54.2243 38.7243C53.957 38.457 53.5 38.6464 53.5 39.0244V40V40.882C53.5 41.2607 53.286 41.607 52.9472 41.7764C52.6657 41.9172 52.3343 41.9172 52.0528 41.7764L49.5 40.5C49.0406 40.2703 48.5 40.6044 48.5 41.118V41.7454C48.5 41.9128 48.539 42.078 48.6139 42.2278L49.6646 44.3293C50.2168 45.4335 50.9686 46.426 51.8822 47.2565L55.5874 50.6249C55.8612 50.8738 56.0994 51.1591 56.2955 51.4728L57.4711 53.3537C58.0344 54.255 59.231 54.5127 60.1153 53.9231L60.7516 53.4989C61.1792 53.2139 61.3276 52.6551 61.0978 52.1955L59.3178 48.6356C59.1062 48.2124 58.9249 47.7747 58.7753 47.3258L57.8131 44.4394C57.6049 43.8147 57.3354 43.212 57.0087 42.6403Z" stroke="black" stroke-width="0.5"/>
</g>
<g id="biceps">
<path id="Vector 76" d="M16.858 31.9704L17.3059 31.433C18.0934 30.4879 19.068 29.716 20.1684 29.1658L20.8422 28.8289L21.056 28.722C21.3281 28.5859 21.6538 28.6153 21.8972 28.7979C22.8904 29.5428 23.4159 30.7573 23.2787 31.9913L23 34.5L22.7855 35.7867C22.5983 36.9102 22.1265 37.9669 21.415 38.8563C20.8122 39.6098 20.053 40.2235 19.19 40.655L16.6623 41.9188C16.5556 41.9722 16.4379 42 16.3185 42C16.1146 42 15.919 41.919 15.7748 41.7748L15.75 41.75C15.5899 41.5899 15.5 41.3728 15.5 41.1464V38.5V35.7213C15.5 35.2422 15.5588 34.765 15.6749 34.3002C15.8889 33.4445 16.2933 32.648 16.858 31.9704Z" stroke="black" stroke-width="0.5"/>
<path id="Vector 96" d="M52.142 31.9704L51.6941 31.433C50.9066 30.4879 49.932 29.716 48.8316 29.1658L48.1578 28.8289L47.944 28.722C47.6719 28.5859 47.3462 28.6153 47.1028 28.7979C46.1096 29.5428 45.5841 30.7573 45.7213 31.9913L46 34.5L46.2145 35.7867C46.4017 36.9102 46.8735 37.9669 47.585 38.8563C48.1878 39.6098 48.947 40.2235 49.81 40.655L52.3377 41.9188C52.4444 41.9722 52.5621 42 52.6815 42C52.8854 42 53.081 41.919 53.2252 41.7748L53.25 41.75C53.4101 41.5899 53.5 41.3728 53.5 41.1464V38.5V35.7213C53.5 35.2422 53.4412 34.765 53.3251 34.3002C53.1111 33.4445 52.7067 32.648 52.142 31.9704Z" stroke="black" stroke-width="0.5"/>
</g>
<g id="deltoideus">
<path id="Vector 74" d="M23 20H25H25.3559C25.7825 20 26.2063 20.0688 26.6111 20.2037L27.3292 20.4431C27.4415 20.4805 27.5436 20.5436 27.6273 20.6273C28.0283 21.0283 27.8671 21.711 27.3292 21.8903L27.2384 21.9205C27.083 21.9723 26.9467 22.0693 26.8468 22.1992L23.6041 26.4147C22.5526 27.7817 21.1424 28.7993 19.5719 29.5117C19.3628 29.6066 19.137 29.7125 18.8848 29.8351C18.2432 30.1431 17.5 29.6756 17.5 28.9638V28.5V25.0523C17.5 24.3603 17.6611 23.6778 17.9706 23.0588C18.3175 22.365 18.8395 21.7737 19.485 21.3434L20.2519 20.8321C21.0657 20.2895 22.0219 20 23 20Z" stroke="black" stroke-width="0.5"/>
<path id="Vector 95" d="M46 20H44H43.6441C43.2175 20 42.7937 20.0688 42.3889 20.2037L41.6708 20.4431C41.5585 20.4805 41.4564 20.5436 41.3727 20.6273C40.9717 21.0283 41.1329 21.711 41.6708 21.8903L41.7616 21.9205C41.917 21.9723 42.0533 22.0693 42.1532 22.1992L45.3959 26.4147C46.4474 27.7817 47.8576 28.7993 49.4281 29.5117C49.6372 29.6066 49.863 29.7125 50.1152 29.8351C50.7568 30.1431 51.5 29.6756 51.5 28.9638V28.5V25.0523C51.5 24.3603 51.3389 23.6778 51.0294 23.0588C50.6825 22.365 50.1605 21.7737 49.515 21.3434L48.7481 20.8321C47.9343 20.2895 46.9781 20 46 20Z" stroke="black" stroke-width="0.5"/>
</g>
<g id="trapezius">
<path id="Vector 71" d="M32.5 19.5L32.8322 20.8288M32.8322 20.8288V20.8288C32.9022 21.1088 32.6256 21.3502 32.3576 21.2431L30.7241 20.5896C30.5761 20.5304 30.4181 20.5 30.2586 20.5H27L23 20H24.5411C25.8151 20 27.0573 19.6019 28.094 18.8614V18.8614C29.3212 17.9849 30.181 16.6856 30.5081 15.2135L30.9251 13.337V13.337C30.9392 13.2737 31.031 13.2787 31.0381 13.3431L31.0625 13.5625L32.8322 20.8288Z" stroke="black" stroke-width="0.5"/>
<path id="Vector 72" d="M36.5 19.5L36.1678 20.8288M36.1678 20.8288V20.8288C36.0978 21.1088 36.3744 21.3502 36.6424 21.2431L38.2759 20.5896C38.4239 20.5304 38.5819 20.5 38.7414 20.5H42L46 20H44.4589C43.1849 20 41.9427 19.6019 40.906 18.8614V18.8614C39.6788 17.9849 38.819 16.6856 38.4919 15.2135L38.0749 13.337V13.337C38.0608 13.2737 37.969 13.2787 37.9619 13.3431L37.9375 13.5625L36.1678 20.8288Z" stroke="black" stroke-width="0.5"/>
</g>
<g id="pectoralis_major">
<path id="Vector 75" d="M24.3563 30.7138L24 30.5L22.5 29.3C21.9665 28.8732 21.9225 28.0775 22.4055 27.5945L23.5 26.5L26.368 22.8126C26.7801 22.2827 27.3398 21.8867 27.9766 21.6745L28.0708 21.6431C28.3551 21.5483 28.6528 21.5 28.9524 21.5C29.6278 21.5 30.2801 21.7451 30.7884 22.1898L33.6237 24.6707C33.8628 24.88 34 25.1823 34 25.5V29.5C34 30.1204 33.6745 30.6953 33.1425 31.0145L32.3213 31.5072C31.7839 31.8297 31.169 32 30.5423 32H29C27.3641 32 25.759 31.5554 24.3563 30.7138Z" stroke="black" stroke-width="0.5"/>
<path id="Vector 94" d="M44.6437 30.7138L45 30.5L46.5 29.3C47.0335 28.8732 47.0775 28.0775 46.5945 27.5945L45.5 26.5L42.632 22.8126C42.2199 22.2827 41.6602 21.8867 41.0234 21.6745L40.9292 21.6431C40.6449 21.5483 40.3472 21.5 40.0476 21.5C39.3722 21.5 38.7199 21.7451 38.2116 22.1898L35.3763 24.6707C35.1372 24.88 35 25.1823 35 25.5V29.5C35 30.1204 35.3255 30.6953 35.8575 31.0145L36.6787 31.5072C37.2161 31.8297 37.831 32 38.4577 32H40C41.6359 32 43.241 31.5554 44.6437 30.7138Z" stroke="black" stroke-width="0.5"/>
</g>
<g id="hand">
<path id="Vector 78" d="M0.748516 59.3509L4.42674 57.144C5.13342 56.7199 5.73713 56.1443 6.19428 55.4586C6.3976 55.1536 6.63401 54.8725 6.87143 54.5932C7.15592 54.2586 7.5 53.7933 7.5 53.5C7.5 53.31 7.93304 53.4809 8.47006 53.7659C9.69328 54.415 10.1319 55.9204 9.61756 57.2061C9.53942 57.4015 9.48255 57.6047 9.44796 57.8122L9.14728 59.6163C9.04938 60.2037 8.88845 60.7789 8.66729 61.3318L7.94686 63.1328C7.35617 64.6096 6.0596 65.6881 4.5 66L3.71902 66.1952C2.98034 66.3799 2.20292 66.1039 1.74608 65.4948C1.2932 64.8909 1.24244 64.0757 1.61693 63.4204L2.73807 61.4584C2.91226 61.1535 3.05592 60.8322 3.16695 60.4992L3.25 60.25C3.35301 59.941 3.05902 59.647 2.75 59.75L1.17374 60.2754C0.842286 60.3859 0.5 60.1392 0.5 59.7898C0.5 59.61 0.594337 59.4434 0.748516 59.3509Z" stroke="black" stroke-width="0.5"/>
<path id="Vector 93" d="M68.2515 59.3509L64.5733 57.144C63.8666 56.7199 63.2629 56.1443 62.8057 55.4586C62.6024 55.1536 62.366 54.8725 62.1286 54.5932C61.8441 54.2586 61.5 53.7933 61.5 53.5C61.5 53.31 61.067 53.4809 60.5299 53.7659C59.3067 54.415 58.8681 55.9204 59.3824 57.2061C59.4606 57.4015 59.5174 57.6047 59.552 57.8122L59.8527 59.6163C59.9506 60.2037 60.1115 60.7789 60.3327 61.3318L61.0531 63.1328C61.6438 64.6096 62.9404 65.6881 64.5 66L65.281 66.1952C66.0197 66.3799 66.7971 66.1039 67.2539 65.4948C67.7068 64.8909 67.7576 64.0757 67.3831 63.4204L66.2619 61.4584C66.0877 61.1535 65.9441 60.8322 65.8331 60.4992L65.75 60.25C65.647 59.941 65.941 59.647 66.25 59.75L67.8263 60.2754C68.1577 60.3859 68.5 60.1392 68.5 59.7898C68.5 59.61 68.4057 59.4434 68.2515 59.3509Z" stroke="black" stroke-width="0.5"/>
</g>
<g id="obliquus_externus_abdominis">
<path id="Vector 80" d="M24.0751 36.1127L23.3304 34.9956C23.118 34.677 23.0347 34.2901 23.0924 33.9115C23.3007 32.5446 23.3853 31.6217 23.2265 30.7815C23.1734 30.5 23.4726 30.2363 23.7288 30.3644L25.5693 31.2846C25.8561 31.428 26.1527 31.5509 26.4568 31.6523L27.3886 31.9629C27.4624 31.9875 27.5396 32 27.6174 32C28.074 32 28.4165 32.4177 28.3269 32.8654L28.0375 34.3123C28.0126 34.4371 28 34.5641 28 34.6914V41.2689C28 42.0866 28.1003 42.9011 28.2986 43.6943L28.7014 45.3057C28.8997 46.0989 29 46.9134 29 47.7311V47.7689C29 48.5866 29.1003 49.4011 29.2986 50.1943L29.5 51L31 56C31.1872 56.468 30.5757 56.8383 30.2477 56.4556L26.1941 51.7264C26.066 51.577 25.9093 51.4547 25.7332 51.3666L25.5468 51.2734C24.6155 50.8077 24.0685 49.8153 24.1721 48.7793L24.5 45.5L24.896 39.1641C24.9635 38.0845 24.6751 37.0127 24.0751 36.1127Z" stroke="black" stroke-width="0.5"/>
<path id="Vector 92" d="M44.9249 36.1127L45.6696 34.9956C45.882 34.677 45.9653 34.2901 45.9076 33.9115C45.6993 32.5446 45.6147 31.6217 45.7735 30.7815C45.8266 30.5 45.5274 30.2363 45.2712 30.3644L43.4307 31.2846C43.1439 31.428 42.8473 31.5509 42.5432 31.6523L41.6114 31.9629C41.5376 31.9875 41.4604 32 41.3826 32C40.926 32 40.5835 32.4177 40.6731 32.8654L40.9625 34.3123C40.9874 34.4371 41 34.5641 41 34.6914V41.2689C41 42.0866 40.8997 42.9011 40.7014 43.6943L40.2986 45.3057C40.1003 46.0989 40 46.9134 40 47.7311V47.7689C40 48.5866 39.8997 49.4011 39.7014 50.1943L39.5 51L38 56C37.8128 56.468 38.4243 56.8383 38.7523 56.4556L42.8059 51.7264C42.934 51.577 43.0907 51.4547 43.2668 51.3666L43.4532 51.2734C44.3845 50.8077 44.9315 49.8153 44.8279 48.7793L44.5 45.5L44.104 39.1641C44.0365 38.0845 44.3249 37.0127 44.9249 36.1127Z" stroke="black" stroke-width="0.5"/>
</g>
<g id="tensor_fasciae_latae">
<path id="Vector 81" d="M26 54.9786V52.4335C26 51.876 25.6433 51.3811 25.1144 51.2048L24.6955 51.0652C24.5724 51.0241 24.4759 50.9276 24.4348 50.8045C24.3055 50.4166 23.7511 50.4335 23.6457 50.8287L22 57L21.2295 60.4671C21.1117 60.9972 21.5151 61.5 22.0581 61.5C22.335 61.5 22.5946 61.3649 22.7534 61.138L25.1276 57.7464C25.6954 56.9351 26 55.9689 26 54.9786Z" stroke="black" stroke-width="0.5"/>
<path id="Vector 91" d="M43 54.9786V52.4335C43 51.876 43.3567 51.3811 43.8856 51.2048L44.3045 51.0652C44.4276 51.0241 44.5241 50.9276 44.5652 50.8045C44.6945 50.4166 45.2489 50.4335 45.3543 50.8287L47 57L47.7705 60.4671C47.8883 60.9972 47.4849 61.5 46.9419 61.5C46.665 61.5 46.4054 61.3649 46.2466 61.138L43.8724 57.7464C43.3046 56.9351 43 55.9689 43 54.9786Z" stroke="black" stroke-width="0.5"/>
</g>
<g id="vastus_medialis">
<path id="Vector 85" d="M29.2929 79.7929L27.8661 78.3661C27.6317 78.1317 27.5 77.8138 27.5 77.4822V75.5788C27.5 75.1939 27.538 74.8099 27.6135 74.4324L28 72.5L28.75 69.5C28.8151 69.2397 29.1849 69.2397 29.25 69.5L29.5 70.5L30 75V79.5C30 79.869 29.5538 80.0538 29.2929 79.7929Z" stroke="black" stroke-width="0.5"/>
<path id="Vector 90" d="M39.7071 79.7929L41.1339 78.3661C41.3683 78.1317 41.5 77.8138 41.5 77.4822V75.5788C41.5 75.1939 41.462 74.8099 41.3865 74.4324L41 72.5L40.25 69.5C40.1849 69.2397 39.8151 69.2397 39.75 69.5L39.5 70.5L39 75V79.5C39 79.869 39.4462 80.0538 39.7071 79.7929Z" stroke="black" stroke-width="0.5"/>
</g>
<g id="knee">
<path id="Vector 86" d="M22.3466 77.5397L21.3162 74.4487C21.1068 73.8203 21 73.1623 21 72.5C21 72.288 21.2926 72.2316 21.3714 72.4285L23.8989 78.7472C23.96 78.8999 24.1078 79 24.2723 79C24.4136 79 24.5445 78.9259 24.6172 78.8047L25.8049 76.8251C25.8894 76.6843 26.0961 76.6922 26.1696 76.8391L26.8162 78.1325C26.9066 78.3133 27.1476 78.3524 27.2906 78.2094C27.4062 78.0938 27.5938 78.0938 27.7094 78.2094L29.3536 79.8536C29.4344 79.9344 29.5656 79.9344 29.6464 79.8536C29.7769 79.7231 30 79.8155 30 80V82.7796C30 82.9256 29.9765 83.0706 29.9303 83.2091L29.6026 84.1921C29.2556 85.2332 28.2027 85.8671 27.1202 85.6867C26.4164 85.5694 25.8112 85.1224 25.4921 84.4842L25.1581 83.8162C25.0555 83.611 24.889 83.4445 24.6838 83.3419C24.2754 83.1377 23.7823 83.2177 23.4594 83.5406L23 84C22.6547 84.3453 22.066 84.0765 22.1008 83.5894L22.4654 78.484C22.4883 78.1645 22.4479 77.8436 22.3466 77.5397Z" stroke="black" stroke-width="0.5"/>
<path id="Vector 89" d="M46.6534 77.5397L47.6838 74.4487C47.8932 73.8203 48 73.1623 48 72.5C48 72.288 47.7074 72.2316 47.6286 72.4285L45.1011 78.7472C45.04 78.8999 44.8922 79 44.7277 79C44.5864 79 44.4555 78.9259 44.3828 78.8047L43.1951 76.8251C43.1106 76.6843 42.9039 76.6922 42.8304 76.8391L42.1838 78.1325C42.0934 78.3133 41.8524 78.3524 41.7094 78.2094C41.5938 78.0938 41.4062 78.0938 41.2906 78.2094L39.6464 79.8536C39.5656 79.9344 39.4344 79.9344 39.3536 79.8536C39.2231 79.7231 39 79.8155 39 80V82.7796C39 82.9256 39.0235 83.0706 39.0697 83.2091L39.3974 84.1921C39.7444 85.2332 40.7973 85.8671 41.8798 85.6867C42.5836 85.5694 43.1888 85.1224 43.5079 84.4842L43.8419 83.8162C43.9445 83.611 44.111 83.4445 44.3162 83.3419C44.7246 83.1377 45.2177 83.2177 45.5406 83.5406L46 84C46.3453 84.3453 46.934 84.0765 46.8992 83.5894L46.5346 78.484C46.5117 78.1645 46.5521 77.8436 46.6534 77.5397Z" stroke="black" stroke-width="0.5"/>
</g>
<path id="head" d="M30.5 8V4.73576C30.5 4.57961 30.5252 4.42448 30.5746 4.27634V4.27634C30.8146 3.55613 31.5687 3.14218 32.3052 3.3263L32.7653 3.44133C32.9212 3.4803 33.0812 3.5 33.2419 3.5H35.0282C35.3385 3.5 35.6445 3.42776 35.922 3.28901L36.2993 3.10033C36.9853 2.75737 37.8192 2.97884 38.2446 3.61692V3.61692C38.4111 3.86671 38.5 4.1602 38.5 4.4604V7.19098C38.5 7.3942 38.5473 7.59463 38.6382 7.77639L38.7764 8.05279C38.9134 8.32687 39.1936 8.5 39.5 8.5V8.5M30.5 8V8C30.5 8.27614 30.2761 8.5 30 8.5V8.5C29.7239 8.5 29.5 8.72386 29.5 9V9.91421C29.5 10.2893 29.649 10.649 29.9142 10.9142L30 11L30.4325 11.4325C30.7959 11.7959 31 12.2887 31 12.8025V12.8025C31 13.5364 31.4146 14.2073 32.071 14.5355L32.4472 14.7236C32.8107 14.9054 33.2116 15 33.618 15H35.382C35.7884 15 36.1893 14.9054 36.5528 14.7236L37.0413 14.4793C37.6289 14.1856 38 13.5851 38 12.9282V12.9282C38 12.3483 38.2898 11.8068 38.7723 11.4852L39.3865 11.0757C39.462 11.0253 39.5323 10.9677 39.5965 10.9035V10.9035C39.8548 10.6452 40 10.2947 40 9.92932V9C40 8.72386 39.7761 8.5 39.5 8.5V8.5M30.5 8V8C29.8597 7.35971 29.5 6.49129 29.5 5.58579V3.59629C29.5 3.20238 29.5752 2.81209 29.7215 2.44636L29.7572 2.35695C30.2058 1.23542 31.2921 0.5 32.5 0.5V0.5H35.5V0.5C36.4604 0.5 37.3815 0.881531 38.0607 1.56066L39.1779 2.67794C39.3913 2.89125 39.5688 3.13756 39.7037 3.40738V3.40738C39.8986 3.7971 40 4.22685 40 4.66257V6V7.29289C40 7.74565 39.8201 8.17986 39.5 8.5V8.5" stroke="black" stroke-width="0.5"/>
<path id="sternocleidomastoideus" d="M29.3004 21.5H28.7071C28.5745 21.5 28.4473 21.4473 28.3536 21.3536C28.0386 21.0386 28.2617 20.5 28.7071 20.5H30.2328C30.4085 20.5 30.5818 20.5409 30.739 20.6195L32.1486 21.3243C32.3585 21.4292 32.6119 21.3881 32.7778 21.2222C32.9153 21.0847 32.9691 20.8843 32.919 20.6964L31.3492 14.8094C31.2533 14.4498 31.6951 14.1951 31.9582 14.4582C31.9859 14.4859 32.0178 14.5089 32.0528 14.5264L32.4074 14.7037C32.7971 14.8986 33.2268 15 33.6626 15H35.3374C35.7732 15 36.2029 14.8986 36.5926 14.7037L36.9472 14.5264C36.9822 14.5089 37.0141 14.4859 37.0418 14.4582C37.3049 14.1951 37.7467 14.4498 37.6508 14.8094L36.081 20.6964C36.0309 20.8843 36.0847 21.0847 36.2222 21.2222C36.3881 21.3881 36.6415 21.4292 36.8514 21.3243L38.261 20.6195C38.4182 20.5409 38.5915 20.5 38.7672 20.5H40.2929C40.7383 20.5 40.9614 21.0386 40.6464 21.3536C40.5527 21.4473 40.4255 21.5 40.2929 21.5H39.7076C39.251 21.5 38.8094 21.6633 38.4627 21.9605L35.5 24.5C35.1799 24.8201 35 25.2544 35 25.7071V30.5C35 30.7761 34.7761 31 34.5 31C34.2239 31 34 30.7773 34 30.5012V25.707C34 25.2542 33.8201 24.8201 33.5 24.5L33 24L30.5374 21.9479C30.1902 21.6585 29.7524 21.5 29.3004 21.5Z" stroke="black" stroke-width="0.5"/>
<path id="rectus_abdominis" d="M28 37.2059V34.2808C28 34.0943 28.0229 33.9085 28.0681 33.7276L28.3787 32.4851C28.45 32.2 28.7061 32 29 32V32H29.6966C30.5576 32 31.4107 31.8357 32.2102 31.5159L33.3882 31.0447C33.462 31.0152 33.529 30.971 33.5852 30.9148V30.9148C33.8143 30.6857 34.1857 30.6857 34.4148 30.9148L34.5 31M28 37.2059V42.6374M28 37.2059L28.1395 37.2798C29.0329 37.7527 30.0285 38 31.0393 38V38C31.676 38 32.3088 37.9019 32.9156 37.7092L34.5 37.2059M28 42.6374L29 46.5M28 42.6374V42.6374C28.6616 42.8773 29.36 43 30.0637 43H32.382C33.1172 43 33.8424 42.8288 34.5 42.5V42.5M29 46.5V47.7689C29 48.5866 29.1003 49.4011 29.2986 50.1943L30 53L31.3063 56.9189C31.4346 57.3038 31.6241 57.6655 31.8675 57.9901L32.1 58.3C32.6666 59.0554 33.5557 59.5 34.5 59.5V59.5M29 46.5L29.7119 46.7848C30.8931 47.2572 32.1536 47.5 33.4258 47.5H34.5M40 46.5V47.7689C40 48.5866 39.8997 49.4011 39.7014 50.1943L39 53L37.6937 56.9189C37.5654 57.3038 37.3759 57.6655 37.1325 57.9901L36.9 58.3C36.3334 59.0554 35.4443 59.5 34.5 59.5V59.5M40 46.5L38.5395 46.9868C37.5198 47.3267 36.452 47.5 35.3772 47.5H34.5M40 46.5L41 42.6374M41 37.2059V34.2808C41 34.0943 40.9771 33.9085 40.9319 33.7276L40.6213 32.4851C40.55 32.2 40.2939 32 40 32V32H39.3034C38.4424 32 37.5893 31.8357 36.7898 31.5159L35.6118 31.0447C35.538 31.0152 35.471 30.971 35.4148 30.9148V30.9148C35.1857 30.6857 34.8143 30.6857 34.5852 30.9148L34.5 31M41 37.2059L40.8605 37.2798C39.9671 37.7527 38.9715 38 37.9607 38V38C37.324 38 36.6912 37.9019 36.0844 37.7092L34.5 37.2059M41 37.2059V42.6374M34.5 31V37.2059M34.5 59.5V47.5M34.5 37.2059V42.5M34.5 42.5V42.5C35.1576 42.8288 35.8828 43 36.618 43H38.1008C38.6991 43 39.2961 42.9463 39.8848 42.8396L41 42.6374M34.5 42.5V47.5" stroke="black" stroke-width="0.5"/>
</g>
</svg>
