<svg xmlns="http://www.w3.org/2000/svg" width="32" height="32" fill="none" viewBox="0 0 32 32">
  <rect width="32" height="32" fill="#212121" rx="5"/>
  <path fill="#D6FFA4" d="M0 11.5V8h12.853v6L15.5 8h3l-4 8 5 8h-2.849l-3.798-6v6h-2.848V8H9.53v3.5H6.206V24H3.358V11.5H0Z"/>
  <path fill="#D6FFA4" d="M31.5 16c0 4.418-3.134 8-7 8s-7-3.582-7-8 3.134-8 7-8 7 3.582 7 8Zm-11.345 0c0 2.742 1.945 4.966 4.345 4.966 2.4 0 4.345-2.224 4.345-4.966S26.9 11.034 24.5 11.034c-2.4 0-4.345 2.223-4.345 4.966Z"/>
</svg>
