<svg xmlns="http://www.w3.org/2000/svg" width="329" height="96" fill="none" viewBox="0 0 329 96">
  <rect width="328.66" height="96" fill="#000" rx="10"/>
  <path fill="#EA4335" d="M50.737 46.565 24.244 74.683c.003.004.003.012.005.017a7.152 7.152 0 0 0 6.91 5.3 7.133 7.133 0 0 0 3.63-.985l.085-.05 29.82-17.207-13.957-15.194Z"/>
  <path fill="#FBBC04" d="m77.539 41.776-.025-.017-12.874-7.462-14.505 12.907 14.557 14.551 12.805-7.388a7.165 7.165 0 0 0 3.77-6.307 7.148 7.148 0 0 0-3.728-6.284Z"/>
  <path fill="#4285F4" d="M24.244 21.316a7.022 7.022 0 0 0-.244 1.84v49.688c0 .637.085 1.254.246 1.838l27.402-27.398-27.404-25.968Z"/>
  <path fill="#34A853" d="m50.933 48 13.71-13.708-29.784-17.27A7.162 7.162 0 0 0 31.16 16a7.162 7.162 0 0 0-6.915 5.308l-.003.007L50.933 48Z"/>
  <path fill="#fff" d="M120.264 23.945c0 1.971-.583 3.54-1.752 4.711-1.329 1.393-3.058 2.089-5.184 2.089-2.039 0-3.77-.706-5.193-2.12-1.428-1.41-2.138-3.163-2.138-5.251 0-2.091.71-3.841 2.138-5.255 1.423-1.411 3.154-2.119 5.193-2.119 1.009 0 1.978.198 2.895.593.92.395 1.656.92 2.209 1.576l-1.242 1.241c-.934-1.114-2.22-1.674-3.862-1.674-1.487 0-2.771.522-3.855 1.566-1.084 1.047-1.625 2.402-1.625 4.072 0 1.667.541 3.024 1.625 4.069 1.084 1.046 2.368 1.566 3.855 1.566 1.576 0 2.888-.524 3.942-1.576.682-.684 1.075-1.634 1.18-2.858h-5.122V22.88h6.837c.066.369.099.724.099 1.065Z"/>
  <path fill="#fff" d="M120.264 23.945c0 1.971-.583 3.54-1.752 4.711-1.329 1.393-3.058 2.089-5.184 2.089-2.039 0-3.77-.706-5.193-2.12-1.428-1.41-2.138-3.163-2.138-5.251 0-2.091.71-3.841 2.138-5.255 1.423-1.411 3.154-2.119 5.193-2.119 1.009 0 1.978.198 2.895.593.92.395 1.656.92 2.209 1.576l-1.242 1.241c-.934-1.114-2.22-1.674-3.862-1.674-1.487 0-2.771.522-3.855 1.566-1.084 1.047-1.625 2.402-1.625 4.072 0 1.667.541 3.024 1.625 4.069 1.084 1.046 2.368 1.566 3.855 1.566 1.576 0 2.888-.524 3.942-1.576.682-.684 1.075-1.634 1.18-2.858h-5.122V22.88h6.837c.066.369.099.724.099 1.065Zm10.841-5.894h-6.426v4.474h5.796v1.696h-5.796v4.473h6.426v1.736h-8.239V16.318h8.239v1.733Z"/>
  <path fill="#fff" d="M131.105 18.051h-6.426v4.474h5.796v1.696h-5.796v4.473h6.426v1.736h-8.239V16.318h8.239v1.733Zm7.646 12.379h-1.813V18.05h-3.942v-1.733h9.697v1.733h-3.942v12.38Z"/>
  <path fill="#fff" d="M138.751 30.43h-1.813V18.05h-3.942v-1.733h9.697v1.733h-3.942v12.38Zm10.959-14.113h1.813V30.43h-1.813V16.317Zm9.856 14.113h-1.814V18.05h-3.942v-1.733h9.698v1.733h-3.942v12.38Z"/>
  <path fill="#fff" d="M159.566 30.43h-1.814V18.05h-3.942v-1.733h9.698v1.733h-3.942v12.38Zm13.291-3.006c1.044 1.058 2.321 1.585 3.833 1.585 1.513 0 2.79-.527 3.834-1.585 1.045-1.059 1.569-2.409 1.569-4.05 0-1.642-.524-2.994-1.569-4.05-1.044-1.059-2.321-1.588-3.834-1.588-1.512 0-2.789.529-3.833 1.587-1.042 1.056-1.567 2.409-1.567 4.05 0 1.642.525 2.992 1.567 4.05Zm9.008 1.18c-1.388 1.428-3.112 2.14-5.175 2.14-2.062 0-3.786-.712-5.172-2.14-1.387-1.425-2.079-3.168-2.079-5.23 0-2.063.692-3.808 2.079-5.234 1.386-1.425 3.11-2.14 5.172-2.14 2.051 0 3.771.717 5.165 2.15 1.393 1.432 2.089 3.173 2.089 5.224 0 2.062-.694 3.805-2.079 5.23Z"/>
  <path fill="#fff" d="M172.857 27.424c1.044 1.058 2.321 1.585 3.833 1.585 1.513 0 2.79-.527 3.834-1.585 1.045-1.059 1.569-2.409 1.569-4.05 0-1.642-.524-2.994-1.569-4.05-1.044-1.059-2.321-1.588-3.834-1.588-1.512 0-2.789.529-3.833 1.587-1.042 1.056-1.567 2.409-1.567 4.05 0 1.642.525 2.992 1.567 4.05Zm9.008 1.18c-1.388 1.428-3.112 2.14-5.175 2.14-2.062 0-3.786-.712-5.172-2.14-1.387-1.425-2.079-3.168-2.079-5.23 0-2.063.692-3.808 2.079-5.234 1.386-1.425 3.11-2.14 5.172-2.14 2.051 0 3.771.717 5.165 2.15 1.393 1.432 2.089 3.173 2.089 5.224 0 2.062-.694 3.805-2.079 5.23Zm4.624 1.826V16.316h2.206l6.858 10.977h.08l-.08-2.719v-8.258h1.816V30.43h-1.893L188.3 18.92h-.078l.078 2.72v8.79h-1.811Z"/>
  <path fill="#fff" d="M186.489 30.43V16.316h2.206l6.858 10.977h.08l-.08-2.719v-8.258h1.816V30.43h-1.893L188.3 18.92h-.078l.078 2.72v8.79h-1.811Zm73.76 39.983h4.389V41.011h-4.389v29.402Zm39.531-18.811-5.031 12.748h-.151l-5.221-12.748h-4.728l7.83 17.816-4.462 9.912h4.575l12.068-27.728h-4.88Zm-24.889 15.471c-1.44 0-3.444-.717-3.444-2.497 0-2.268 2.496-3.138 4.653-3.138 1.928 0 2.839.416 4.01.983-.341 2.724-2.686 4.652-5.219 4.652Zm.529-16.113c-3.178 0-6.47 1.4-7.83 4.502l3.895 1.625c.833-1.626 2.383-2.157 4.01-2.157 2.27 0 4.577 1.362 4.615 3.784v.301c-.795-.453-2.496-1.133-4.577-1.133-4.199 0-8.474 2.307-8.474 6.618 0 3.935 3.443 6.47 7.3 6.47 2.952 0 4.58-1.323 5.6-2.876h.151v2.27h4.236V59.09c0-5.22-3.895-8.131-8.926-8.131Zm-27.123 4.222h-6.243V45.103h6.243c3.281 0 5.143 2.717 5.143 5.038 0 2.28-1.862 5.04-5.143 5.04Zm-.113-14.171h-10.516v29.402h4.386V59.274h6.13c4.864 0 9.645-3.523 9.645-9.133 0-5.61-4.781-9.13-9.645-9.13Zm-57.345 26.067c-3.031 0-5.569-2.538-5.569-6.023 0-3.524 2.538-6.102 5.569-6.102 2.995 0 5.342 2.578 5.342 6.102 0 3.485-2.347 6.023-5.342 6.023Zm5.041-13.83h-.153c-.986-1.173-2.879-2.234-5.266-2.234-5.003 0-9.587 4.393-9.587 10.04 0 5.608 4.584 9.966 9.587 9.966 2.387 0 4.28-1.06 5.266-2.274h.153v1.441c0 3.827-2.046 5.873-5.344 5.873-2.691 0-4.358-1.933-5.04-3.563l-3.827 1.592c1.098 2.654 4.017 5.911 8.867 5.911 5.153 0 9.512-3.032 9.512-10.42V51.619h-4.168v1.63Zm7.199 17.165h4.396V41.008h-4.396v29.405Zm10.874-9.7c-.113-3.864 2.994-5.835 5.228-5.835 1.745 0 3.222.87 3.714 2.122l-8.942 3.714Zm13.641-3.335c-.832-2.234-3.373-6.364-8.563-6.364-5.154 0-9.434 4.052-9.434 10.003 0 5.607 4.243 10.003 9.925 10.003 4.587 0 7.24-2.804 8.338-4.433l-3.41-2.275c-1.136 1.668-2.691 2.766-4.928 2.766-2.234 0-3.827-1.023-4.85-3.03l13.376-5.534-.454-1.136ZM121.03 54.083v4.243h10.153c-.303 2.388-1.098 4.13-2.31 5.342-1.479 1.48-3.791 3.109-7.843 3.109-6.254 0-11.142-5.04-11.142-11.292 0-6.254 4.888-11.292 11.142-11.292 3.372 0 5.835 1.327 7.653 3.032l2.994-2.994c-2.54-2.425-5.911-4.283-10.647-4.283-8.564 0-15.764 6.973-15.764 15.537s7.2 15.535 15.764 15.535c4.621 0 8.107-1.517 10.835-4.358 2.806-2.804 3.676-6.743 3.676-9.928 0-.986-.075-1.893-.228-2.65H121.03Zm26.057 12.995c-3.031 0-5.647-2.5-5.647-6.061 0-3.601 2.616-6.064 5.647-6.064 3.03 0 5.645 2.463 5.645 6.064 0 3.56-2.615 6.061-5.645 6.061Zm0-16.064c-5.534 0-10.043 4.205-10.043 10.003 0 5.76 4.509 10.003 10.043 10.003 5.532 0 10.041-4.243 10.041-10.003 0-5.798-4.509-10.003-10.041-10.003Zm21.905 16.064c-3.032 0-5.648-2.5-5.648-6.061 0-3.601 2.616-6.064 5.648-6.064 3.031 0 5.644 2.463 5.644 6.064 0 3.56-2.613 6.061-5.644 6.061Zm0-16.064c-5.532 0-10.041 4.205-10.041 10.003 0 5.76 4.509 10.003 10.041 10.003s10.04-4.243 10.04-10.003c0-5.798-4.508-10.003-10.04-10.003Z"/>
</svg>
